<?xml version="1.0" standalone="no"?>
<!DOCTYPE svg PUBLIC "-//W3C//DTD SVG 20010904//EN"
 "http://www.w3.org/TR/2001/REC-SVG-20010904/DTD/svg10.dtd">
<svg version="1.0" xmlns="http://www.w3.org/2000/svg"
 width="1448.000000pt" height="1448.000000pt" viewBox="0 0 1448.000000 1448.000000"
 preserveAspectRatio="xMidYMid meet">
<metadata>
Created by potrace 1.14, written by Peter Selinger 2001-2017
</metadata>
<g transform="translate(0.000000,1448.000000) scale(0.100000,-0.100000)"
fill="#000000" stroke="none">
<path d="M7481 14416 c-8 -11 -7 -96 3 -149 3 -15 10 -55 17 -90 14 -78 17
-92 19 -92 1 0 3 -7 5 -15 1 -8 7 -40 14 -70 17 -86 21 -114 35 -210 11 -73
18 -115 22 -121 2 -3 6 -21 9 -40 4 -19 8 -41 10 -49 2 -8 4 -18 4 -22 2 -16
54 -68 68 -68 20 0 120 -47 128 -60 4 -6 11 -8 16 -5 5 4 12 0 15 -8 3 -8 13
-14 22 -13 9 2 22 -2 29 -8 34 -30 43 -36 43 -29 0 4 5 0 11 -9 5 -10 16 -15
24 -12 10 4 15 0 15 -11 0 -9 4 -14 9 -10 5 3 17 -2 25 -11 9 -8 16 -13 16 -9
0 3 11 -6 25 -20 14 -14 30 -25 35 -25 5 0 20 -11 34 -25 14 -14 29 -25 33
-25 4 0 21 -11 37 -25 26 -23 34 -26 52 -24 3 0 14 -9 23 -20 10 -11 21 -18
25 -14 3 3 6 2 6 -4 0 -10 36 -26 53 -24 4 1 7 -7 8 -17 0 -11 2 -12 6 -4 4
10 7 10 17 -1 6 -8 38 -29 71 -47 129 -70 155 -85 155 -93 0 -5 4 -6 9 -2 5 3
22 -6 36 -19 15 -14 40 -31 56 -38 16 -7 29 -16 29 -19 0 -6 31 -17 47 -17 3
0 10 -7 15 -16 5 -9 13 -14 19 -11 5 4 9 -2 9 -12 0 -14 2 -15 9 -5 6 11 10
10 15 -4 3 -9 9 -14 12 -11 4 3 13 -1 21 -9 8 -8 19 -11 25 -8 6 4 8 2 4 -4
-3 -6 4 -14 16 -18 13 -4 34 -15 47 -25 13 -10 27 -16 32 -13 5 3 9 0 9 -5 0
-6 7 -11 15 -11 8 0 15 -4 15 -10 0 -5 9 -10 20 -10 11 0 20 -4 20 -8 0 -5 16
-14 35 -22 19 -8 35 -18 35 -22 0 -5 5 -6 10 -3 6 3 10 1 10 -5 0 -6 4 -9 9
-6 5 4 11 3 13 -1 4 -11 80 -49 90 -45 4 1 8 -3 8 -9 0 -5 5 -7 10 -4 6 3 10
1 10 -4 0 -6 9 -11 20 -11 11 0 20 -4 20 -10 0 -5 9 -10 20 -10 11 0 20 -4 20
-10 0 -5 11 -12 25 -16 14 -3 25 -11 25 -16 0 -5 5 -8 12 -6 7 3 25 -8 42 -24
16 -16 35 -27 41 -24 6 2 17 -5 24 -15 6 -11 16 -17 21 -14 6 3 10 1 10 -5 0
-6 5 -8 10 -5 6 3 10 1 10 -5 0 -7 7 -10 15 -6 8 3 15 2 15 -3 0 -4 34 -23 75
-41 41 -18 72 -36 70 -40 -2 -4 2 -7 10 -8 8 -1 22 -3 30 -4 8 -1 17 -8 19
-15 3 -8 10 -11 16 -8 5 3 10 1 10 -5 0 -6 5 -8 10 -5 6 3 10 1 10 -6 0 -7 3
-10 6 -6 4 3 13 -1 21 -9 9 -8 22 -13 30 -10 8 3 11 1 8 -4 -3 -6 3 -10 15
-10 12 0 18 -4 15 -10 -3 -5 -1 -10 5 -10 6 0 18 -7 27 -15 8 -8 19 -13 24
-10 5 4 9 1 9 -4 0 -6 10 -11 23 -11 18 0 19 -2 7 -10 -13 -9 -13 -10 0 -10 8
0 33 -14 54 -30 22 -17 46 -30 53 -30 7 0 13 -4 13 -10 0 -5 6 -10 14 -10 8 0
16 -5 18 -10 2 -6 13 -12 25 -13 12 0 20 -4 17 -8 -2 -4 4 -10 15 -14 10 -3
29 -15 42 -26 13 -11 31 -18 41 -16 10 3 16 1 12 -4 -5 -8 8 -12 22 -6 3 1 10
-5 15 -15 6 -10 17 -14 31 -11 16 3 19 2 10 -4 -9 -7 -1 -13 28 -23 22 -7 40
-17 40 -22 0 -5 4 -7 9 -4 5 3 12 -1 15 -10 4 -10 12 -14 23 -10 10 4 14 4 10
0 -13 -14 197 -139 215 -128 7 4 8 3 4 -4 -4 -7 -1 -12 8 -12 9 0 16 -4 16
-10 0 -5 7 -10 16 -10 8 0 22 -7 31 -16 9 -8 22 -13 29 -10 8 3 13 0 11 -7 -1
-7 4 -11 11 -10 6 2 12 -2 12 -7 0 -6 7 -10 15 -10 8 0 15 -4 15 -8 0 -4 16
-14 35 -21 19 -7 35 -17 35 -22 0 -5 9 -9 20 -9 11 0 20 -4 20 -10 0 -5 7 -10
15 -10 8 0 15 -5 15 -11 0 -5 5 -7 10 -4 5 3 10 1 10 -5 0 -7 7 -9 16 -6 8 3
13 2 9 -3 -3 -5 9 -20 27 -32 18 -13 35 -27 36 -31 2 -4 10 -8 18 -8 8 0 14
-4 14 -8 0 -4 12 -15 28 -24 35 -22 70 -49 90 -70 9 -10 22 -18 29 -18 7 0 13
-5 13 -11 0 -5 4 -8 9 -5 5 3 12 -1 15 -10 4 -9 13 -14 22 -10 8 3 12 2 9 -4
-3 -6 -1 -11 4 -11 12 -2 26 -5 39 -9 4 -1 10 -2 15 -1 4 0 7 -4 7 -9 0 -6 9
-10 19 -10 11 0 21 -5 23 -10 2 -6 13 -12 25 -13 12 0 20 -4 17 -8 -2 -4 3
-10 12 -13 23 -9 26 -8 18 7 -6 9 -5 9 8 0 8 -7 19 -9 23 -5 5 4 5 2 2 -4 -4
-7 0 -14 7 -17 8 -3 17 -1 20 6 2 7 5 4 5 -7 1 -14 6 -17 22 -13 12 3 18 3 15
0 -8 -9 15 -34 25 -27 5 3 9 0 9 -5 0 -6 9 -11 19 -11 11 0 23 -5 26 -10 4 -6
11 -7 17 -4 6 4 8 2 4 -4 -3 -6 -2 -13 4 -17 5 -3 10 -1 10 5 0 6 7 4 16 -5 9
-9 23 -14 30 -11 9 3 11 0 7 -11 -5 -12 -2 -15 10 -10 12 4 14 2 10 -10 -4
-11 -2 -14 5 -9 6 4 20 -1 31 -11 36 -33 50 -43 60 -43 5 0 12 -7 15 -16 3 -8
10 -12 16 -9 5 3 10 2 10 -2 0 -11 79 -59 91 -56 5 2 9 -2 9 -7 0 -6 7 -10 17
-10 9 0 13 -3 10 -7 -10 -10 52 -44 66 -37 7 4 9 4 5 -1 -8 -9 15 -35 31 -35
6 0 11 -5 11 -11 0 -5 5 -7 10 -4 6 3 10 1 10 -5 0 -6 5 -8 10 -5 6 3 10 1 10
-4 0 -6 6 -11 13 -11 7 0 19 -9 27 -20 8 -11 17 -20 20 -20 9 0 142 -133 181
-181 42 -53 122 -179 113 -179 -4 0 -1 -7 6 -15 7 -8 10 -15 7 -15 -3 0 3 -22
12 -48 10 -26 17 -56 15 -65 -1 -9 1 -17 4 -17 4 0 8 -15 9 -32 1 -18 4 -53 7
-78 3 -25 6 -127 6 -228 1 -137 4 -181 13 -176 8 5 8 3 0 -7 -7 -7 -13 -21
-13 -31 0 -10 6 -18 13 -18 8 0 9 -2 1 -8 -14 -9 -14 -114 0 -124 8 -5 8 -8 0
-8 -6 0 -11 -11 -11 -25 0 -16 4 -22 11 -18 7 4 6 1 -1 -8 -10 -12 -10 -18 0
-29 7 -7 7 -10 1 -7 -13 7 -14 -67 -1 -79 4 -4 2 -13 -5 -21 -8 -11 -7 -17 8
-28 17 -13 17 -14 1 -9 -19 7 -21 -15 -2 -28 6 -5 6 -8 -2 -8 -13 0 -12 -18 1
-39 6 -9 5 -12 -1 -8 -14 9 -11 -25 2 -35 6 -5 6 -8 -1 -8 -6 0 -11 -7 -11
-15 0 -8 4 -15 9 -15 5 0 6 -6 1 -12 -12 -20 -12 -38 -1 -38 7 0 7 -5 -1 -13
-8 -10 -7 -17 1 -25 9 -9 9 -12 -1 -12 -10 0 -11 -3 -2 -14 8 -10 9 -16 1 -21
-14 -9 -2 -27 13 -19 7 3 5 0 -3 -8 -18 -15 -23 -51 -6 -41 6 4 5 -1 -3 -10
-10 -13 -10 -17 -1 -17 9 0 10 -3 1 -13 -8 -10 -7 -17 1 -25 9 -9 9 -12 -1
-12 -11 0 -11 -3 -1 -15 10 -12 10 -15 0 -15 -10 0 -10 -3 -1 -14 9 -10 9 -16
1 -21 -8 -5 -8 -10 0 -20 8 -10 7 -14 -2 -18 -10 -4 -10 -6 1 -6 11 -1 11 -4
1 -16 -10 -12 -10 -15 0 -15 9 0 10 -3 1 -13 -8 -10 -7 -17 1 -25 7 -7 8 -12
2 -12 -5 0 -9 -20 -9 -45 0 -25 4 -45 9 -45 5 0 3 -7 -4 -15 -10 -12 -10 -15
1 -15 9 0 10 -3 4 -8 -13 -9 -13 -185 0 -194 6 -5 5 -8 -3 -8 -7 0 -10 -5 -7
-10 4 -6 12 -8 18 -4 7 3 4 -1 -5 -9 -14 -11 -15 -16 -5 -27 10 -10 9 -11 -3
-5 -13 8 -13 7 -1 -8 10 -13 10 -17 1 -17 -9 0 -10 -3 -1 -13 8 -10 7 -17 -1
-25 -9 -9 -9 -12 1 -12 11 0 11 -3 1 -15 -10 -12 -10 -15 0 -15 10 0 10 -3 0
-15 -10 -12 -10 -15 1 -15 12 0 12 -2 0 -9 -9 -6 -10 -10 -2 -16 9 -5 9 -10 0
-21 -9 -11 -9 -14 1 -14 10 0 10 -3 0 -15 -10 -12 -10 -15 1 -15 10 0 11 -2 2
-8 -8 -5 -9 -13 -3 -22 5 -9 5 -19 -2 -27 -8 -10 -7 -13 3 -13 9 0 10 -3 4 -8
-13 -9 -15 -62 -2 -62 5 0 4 -7 -3 -15 -10 -12 -10 -15 0 -15 9 0 10 -3 1 -13
-8 -10 -7 -17 1 -25 9 -9 9 -12 -1 -12 -10 0 -11 -3 -2 -14 9 -10 9 -16 1 -21
-8 -5 -8 -11 1 -21 9 -11 9 -14 -1 -14 -9 0 -7 -7 5 -20 18 -20 18 -21 1 -14
-16 6 -17 4 -8 -13 6 -11 8 -23 5 -27 -4 -4 -7 -22 -8 -41 0 -28 3 -34 15 -30
11 4 11 2 -2 -8 -14 -11 -15 -16 -5 -27 7 -7 7 -10 2 -7 -6 3 -11 -3 -11 -13
0 -10 4 -16 9 -13 5 3 4 -4 -2 -16 -9 -16 -9 -21 0 -21 7 0 8 -4 2 -13 -10
-14 -11 -117 0 -134 4 -6 3 -15 -3 -18 -8 -5 -7 -11 1 -21 9 -11 9 -14 -1 -14
-10 0 -10 -3 0 -15 9 -11 9 -15 1 -15 -8 0 -9 -5 -1 -19 7 -14 7 -22 0 -26 -8
-5 -7 -11 1 -21 6 -8 7 -14 2 -14 -10 0 -10 -60 1 -78 4 -7 2 -12 -3 -12 -13
0 -10 -22 4 -32 7 -5 7 -8 0 -8 -12 0 -13 -59 -1 -78 4 -7 4 -12 -1 -12 -4 0
-8 -27 -8 -60 0 -33 4 -60 10 -60 7 0 7 -3 0 -8 -5 -4 -10 -14 -10 -22 0 -8 5
-18 10 -22 6 -5 6 -8 -1 -8 -12 0 -11 -41 1 -59 3 -6 1 -11 -6 -11 -8 0 -8 -4
1 -15 7 -9 8 -15 2 -15 -11 0 -11 -18 1 -37 5 -8 3 -13 -4 -13 -8 0 -8 -4 1
-15 7 -8 8 -15 3 -15 -6 0 -9 -10 -7 -22 10 -69 11 -79 3 -84 -5 -3 -5 -13 0
-22 6 -11 6 -24 0 -35 -7 -12 -6 -17 2 -17 8 0 8 -4 -1 -15 -10 -12 -10 -15 0
-15 9 0 10 -3 1 -13 -8 -10 -7 -17 1 -25 9 -9 9 -12 0 -12 -10 0 -10 -5 -2
-20 6 -11 7 -20 2 -20 -5 0 -7 -11 -4 -25 2 -15 9 -22 16 -18 6 4 5 -1 -2 -10
-8 -9 -11 -21 -8 -26 4 -5 2 -12 -4 -16 -6 -4 -7 -12 -3 -18 4 -7 8 -46 9 -87
1 -41 3 -75 4 -75 1 0 2 -46 2 -102 1 -58 6 -103 11 -103 5 0 3 -7 -4 -17 -11
-13 -11 -17 -1 -21 10 -3 10 -7 1 -19 -10 -12 -10 -16 2 -24 12 -7 12 -9 -1
-9 -13 0 -13 -1 0 -10 10 -7 12 -12 4 -17 -14 -10 -13 -55 1 -65 6 -5 4 -8 -5
-8 -9 -1 -6 -6 10 -16 14 -8 18 -13 8 -10 -10 3 -18 -2 -21 -15 -3 -13 -1 -17
6 -12 8 4 7 1 -1 -9 -7 -9 -12 -20 -11 -24 4 -23 -2 -35 -13 -28 -9 5 -9 2 1
-9 7 -9 11 -18 7 -18 -26 -5 -53 -4 -63 3 -6 5 -14 5 -18 -2 -3 -6 -12 -7 -18
-3 -13 8 -46 13 -99 16 -20 1 -34 6 -31 11 4 5 -1 7 -10 3 -10 -4 -17 -1 -17
5 0 6 -3 8 -6 5 -4 -3 -15 -2 -25 4 -13 7 -19 6 -19 -1 0 -6 -10 -2 -22 9 -15
14 -25 18 -33 11 -9 -7 -16 -5 -25 5 -7 9 -19 14 -26 11 -7 -3 -14 0 -16 5 -2
5 -13 11 -26 12 -12 0 -22 6 -22 12 0 5 -5 3 -10 -5 -8 -13 -10 -12 -10 4 0
15 -3 16 -15 6 -13 -11 -14 -10 -9 5 5 12 4 16 -4 11 -6 -3 -13 -2 -17 4 -4 6
-10 8 -15 5 -5 -3 -12 0 -16 6 -4 8 -9 7 -15 -2 -7 -11 -9 -10 -9 4 0 17 -7
20 -42 20 -10 0 -15 4 -12 8 3 5 2 9 -3 10 -35 3 -58 12 -70 27 -8 9 -12 11
-8 5 4 -9 1 -11 -9 -7 -9 3 -16 10 -16 16 0 14 -27 38 -34 30 -4 -3 -4 1 -1 9
3 9 -1 22 -10 29 -8 7 -15 21 -15 32 0 10 -4 17 -9 14 -10 -7 -24 22 -16 34 3
5 1 11 -5 15 -5 3 -10 14 -10 25 0 10 -6 20 -14 23 -9 4 -12 14 -9 28 5 17 3
20 -7 14 -9 -5 -11 -4 -6 4 4 6 11 9 16 6 5 -3 8 10 6 30 -1 20 2 39 7 42 5 3
3 9 -4 14 -11 6 -10 9 4 15 17 6 17 7 0 27 -10 11 -12 17 -5 13 10 -6 13 -1
11 20 -2 16 0 34 4 41 4 6 2 15 -4 19 -8 5 -9 3 -4 -6 6 -9 4 -11 -4 -5 -9 5
-10 10 -2 18 14 14 14 30 1 22 -7 -4 -7 3 0 20 12 32 12 38 2 31 -10 -6 -9 30
1 40 12 12 8 26 -5 18 -9 -5 -9 -2 1 9 10 13 10 17 1 17 -10 0 -10 4 1 16 10
13 10 17 0 24 -9 5 -10 10 -2 14 6 4 11 12 11 17 0 6 -6 7 -12 3 -9 -5 -9 -2
1 9 10 13 10 17 1 17 -9 0 -9 4 1 17 11 13 11 17 1 20 -6 3 -9 10 -5 16 11 18
10 81 -2 90 -6 4 -5 11 5 17 13 9 13 11 0 20 -13 9 -13 10 0 10 13 0 13 1 0
10 -11 8 -12 12 -3 18 8 5 9 13 3 22 -5 9 -5 19 2 27 7 9 7 13 -1 13 -7 0 -8
8 -1 25 6 16 6 25 -1 25 -6 0 -6 8 2 21 8 15 8 19 0 15 -8 -5 -7 1 1 19 10 22
9 28 -3 36 -11 7 -11 9 0 9 10 0 11 3 2 14 -7 8 -8 17 -3 20 5 3 9 35 8 70 -2
40 1 63 7 59 6 -4 7 -1 1 8 -12 20 -14 39 -3 39 6 0 7 5 4 10 -4 6 -12 7 -18
3 -9 -5 -9 -3 -1 8 15 19 17 158 3 176 -10 11 -8 12 7 7 15 -5 16 -4 7 6 -7 7
-8 22 -3 40 4 15 4 33 0 41 -5 7 -6 17 -3 21 2 5 -1 16 -9 25 -8 10 -8 14 -1
10 6 -4 14 -3 18 3 3 5 -1 10 -9 10 -9 0 -16 5 -16 11 0 5 5 7 10 4 14 -9 11
96 -4 114 -8 11 -8 13 1 8 9 -6 12 9 10 58 -1 36 -6 65 -12 65 -7 0 -7 3 0 8
15 11 17 64 2 55 -9 -5 -9 -3 0 8 10 12 10 18 0 29 -9 10 -9 11 1 6 6 -4 12
-2 12 3 0 6 -6 11 -12 11 -9 0 -9 3 -3 8 11 8 12 43 1 60 -3 6 -2 14 4 17 8 5
8 11 1 19 -6 7 -8 15 -5 19 9 9 12 57 3 63 -5 2 -4 16 1 29 5 14 6 25 2 25 -4
0 -8 30 -8 66 -1 45 -5 69 -15 75 -8 5 -9 9 -3 9 16 0 12 32 -6 48 -8 7 -10
11 -4 10 7 -2 12 2 12 7 1 6 -7 9 -16 7 -14 -2 -14 -1 -3 7 12 8 18 60 11 89
-1 4 -3 18 -5 32 -1 14 -3 28 -5 33 -6 17 -6 33 2 50 6 11 5 17 -2 17 -6 0 -8
5 -4 12 10 15 11 68 2 68 -4 0 -4 10 1 23 5 12 5 31 2 42 -4 11 -7 104 -6 207
0 104 -4 188 -8 188 -4 0 -3 9 3 20 6 11 7 20 3 20 -4 0 -8 145 -9 323 -1 303
-4 391 -17 427 -6 16 -16 60 -17 72 0 5 -9 24 -20 43 -11 20 -20 40 -20 46 0
5 -25 44 -55 85 -30 40 -53 74 -51 74 8 0 -87 91 -124 119 -36 27 -82 66 -106
89 -8 7 -14 10 -14 5 -1 -4 -10 3 -20 16 -11 13 -20 19 -20 15 0 -5 -4 -4 -8
1 -4 6 -27 26 -52 45 -25 19 -48 39 -52 45 -5 6 -8 6 -8 0 0 -7 -3 -7 -8 0
-14 19 -72 46 -84 39 -7 -4 -8 -3 -4 4 4 7 -6 18 -26 27 -18 8 -58 29 -88 45
-30 17 -56 30 -57 30 -19 -1 -23 2 -17 12 5 7 2 9 -9 5 -9 -3 -18 0 -21 9 -3
8 -12 14 -21 14 -8 0 -15 5 -15 12 0 6 -3 9 -6 5 -6 -5 -184 83 -211 105 -7 5
-17 7 -23 3 -5 -3 -10 -2 -10 3 0 7 -119 68 -150 77 -3 0 -42 20 -87 42 -46
23 -83 40 -83 37 0 -3 -10 4 -22 16 -20 18 -27 21 -44 19 -4 0 -10 4 -13 9 -7
10 -67 43 -77 41 -4 0 -10 4 -13 9 -10 16 -88 52 -96 44 -5 -4 -5 -2 -1 5 4 7
-3 14 -16 19 -13 3 -35 15 -50 26 -16 11 -28 17 -28 14 0 -5 -69 43 -107 75
-7 5 -13 7 -13 4 0 -4 -12 2 -27 13 -41 28 -239 121 -293 137 -43 13 -235 88
-240 94 -3 3 -12 7 -20 9 -14 3 -112 59 -255 145 -33 20 -93 55 -132 78 -40
24 -73 47 -73 51 0 4 -7 8 -15 8 -8 0 -15 4 -15 10 0 5 -12 16 -27 24 -16 8
-24 15 -19 16 5 0 -8 11 -28 25 -20 13 -49 37 -65 52 -47 46 -102 93 -108 93
-3 0 -16 11 -29 25 -13 14 -27 25 -31 25 -4 0 -27 17 -49 38 -70 63 -106 92
-114 92 -4 0 -11 7 -14 16 -4 9 -9 14 -13 11 -3 -4 -13 1 -22 11 -9 10 -33 28
-53 41 -21 12 -38 27 -38 32 0 6 -4 8 -9 4 -5 -3 -13 0 -16 6 -4 5 -14 8 -23
4 -9 -3 -13 -3 -10 1 8 7 -15 34 -29 34 -5 0 -15 9 -23 20 -8 11 -20 20 -26
20 -7 0 -14 4 -16 9 -1 5 -10 11 -18 13 -8 2 -23 13 -33 26 -11 13 -22 21 -24
18 -3 -3 -11 0 -18 7 -31 29 -56 47 -66 47 -6 0 -36 14 -67 31 -52 29 -86 41
-119 42 -7 0 -13 5 -13 11 0 6 -5 4 -10 -4 -5 -8 -10 -10 -10 -4 0 6 -10 10
-22 9 -13 -1 -29 2 -35 8 -8 6 -13 6 -13 0 0 -5 -7 -10 -15 -11 -8 -1 -21 -3
-28 -4 -7 -1 -12 -13 -11 -27 0 -14 -3 -28 -7 -31 -5 -3 -10 -37 -13 -75 -3
-39 -8 -106 -12 -150 -15 -153 -7 -1058 9 -1048 6 4 7 1 1 -8 -11 -18 -12 -69
0 -69 5 0 3 -6 -3 -13 -6 -8 -8 -17 -4 -20 3 -4 8 -107 10 -229 3 -142 8 -225
15 -229 7 -4 6 -8 -3 -11 -12 -4 -11 -8 1 -23 9 -11 10 -16 2 -11 -9 5 -11 1
-8 -16 3 -13 5 -24 6 -25 2 -4 2 -82 0 -90 -1 -5 -1 -12 0 -18 1 -5 4 -71 6
-145 7 -214 10 -248 25 -267 12 -16 12 -17 -2 -5 -14 11 -16 7 -14 -30 2 -24
4 -45 5 -48 6 -14 4 -36 -4 -47 -5 -8 -5 -13 1 -13 12 0 11 -53 -2 -62 -7 -5
-7 -8 0 -8 10 0 11 -67 15 -915 2 -281 6 -404 14 -414 7 -10 7 -13 0 -8 -7 4
-11 -20 -12 -78 0 -62 3 -83 11 -78 9 5 9 3 1 -8 -9 -10 -11 -122 -9 -404 4
-400 5 -431 18 -452 5 -7 5 -13 2 -13 -4 0 0 -7 9 -15 17 -18 40 -20 30 -3 -5
7 -3 8 5 4 7 -5 10 -14 7 -22 -3 -8 0 -11 9 -7 9 3 18 -3 22 -13 6 -16 7 -16
14 2 5 13 8 14 8 4 1 -8 10 -21 22 -28 12 -8 18 -9 14 -3 -3 6 -1 11 4 11 6 0
11 -7 11 -15 0 -8 3 -15 8 -16 28 -3 44 -10 63 -28 13 -12 29 -21 36 -21 7 0
13 -5 13 -11 0 -5 5 -7 10 -4 6 3 10 1 10 -4 0 -6 7 -11 15 -11 8 0 15 -4 15
-10 0 -5 7 -6 17 -3 11 4 14 3 9 -5 -4 -7 -1 -12 8 -12 9 0 16 -4 16 -10 0 -5
7 -10 16 -10 9 0 12 5 8 13 -4 7 -3 9 2 4 5 -5 10 -13 10 -18 1 -5 2 -12 3
-15 0 -4 7 -1 15 5 12 10 14 9 9 -7 -2 -11 1 -19 9 -20 40 -3 54 -9 67 -25 7
-10 19 -16 27 -13 8 3 14 1 14 -5 0 -6 5 -7 10 -4 6 3 10 1 10 -5 0 -6 4 -9 9
-6 5 3 11 -1 15 -9 3 -8 17 -15 31 -15 14 0 25 -5 25 -11 0 -6 9 -9 20 -6 11
3 18 1 15 -3 -7 -12 13 -23 44 -25 14 -1 25 -7 24 -12 -1 -6 5 -10 15 -9 9 2
23 -3 31 -11 7 -8 20 -12 28 -9 8 3 11 1 8 -4 -5 -9 15 -15 38 -11 4 0 6 -5 5
-11 -2 -7 3 -12 10 -10 6 1 12 -2 12 -8 0 -5 7 -10 15 -10 8 0 15 -4 15 -10 0
-5 7 -10 15 -10 8 0 15 -5 15 -11 0 -6 7 -9 15 -5 8 3 14 2 14 -2 -3 -19 2
-25 11 -12 8 13 10 12 10 -2 0 -16 11 -23 33 -19 4 0 7 -6 7 -15 0 -8 4 -13 9
-9 5 3 16 -2 24 -10 12 -11 17 -12 20 -2 3 7 6 4 6 -7 1 -12 6 -16 17 -12 8 3
13 2 10 -3 -7 -11 22 -23 36 -14 7 3 8 1 4 -5 -4 -7 -1 -12 9 -12 8 0 18 -7
22 -16 3 -8 11 -13 18 -10 8 3 16 -2 19 -10 3 -9 10 -12 16 -9 5 3 10 1 10 -4
0 -6 7 -11 15 -11 8 0 15 -5 15 -12 0 -6 3 -8 7 -5 3 4 18 -3 31 -15 14 -13
22 -17 18 -10 -4 6 -2 12 3 12 6 0 11 -8 12 -17 0 -10 3 -13 5 -6 3 7 15 2 32
-14 15 -13 34 -31 43 -39 9 -8 21 -14 27 -14 7 0 12 -4 12 -10 0 -5 7 -10 15
-10 8 0 15 -4 15 -10 0 -5 7 -10 15 -10 8 0 15 -5 15 -10 0 -6 12 -16 28 -23
15 -6 33 -17 40 -24 8 -7 19 -10 25 -6 7 3 9 3 5 -1 -8 -9 13 -36 23 -30 4 2
12 -3 19 -11 7 -8 19 -15 26 -15 8 0 14 -4 14 -10 0 -5 7 -10 15 -10 8 0 15
-4 15 -9 0 -5 7 -12 16 -15 8 -3 12 -2 9 3 -3 5 0 13 6 17 7 4 9 3 6 -3 -8
-12 37 -53 58 -53 8 0 15 -4 15 -9 0 -10 39 -27 53 -23 4 1 6 -1 5 -5 -2 -5 1
-9 5 -10 4 -1 19 -11 34 -22 14 -12 30 -18 36 -14 6 3 7 1 3 -5 -4 -7 -1 -12
8 -12 9 0 16 -3 16 -8 0 -9 62 -37 75 -33 5 1 7 -1 2 -5 -9 -9 43 -45 55 -38
4 3 8 -3 9 -13 0 -16 1 -16 9 2 7 15 9 16 9 4 1 -9 9 -23 18 -30 15 -12 16
-12 10 4 -4 11 -3 16 3 12 6 -3 10 -13 10 -21 0 -8 10 -14 23 -14 18 0 19 -2
7 -10 -11 -7 -12 -10 -2 -10 7 0 20 -7 29 -15 8 -8 19 -13 24 -10 5 4 9 -1 9
-9 0 -10 7 -13 21 -11 12 3 19 2 16 -2 -10 -9 43 -51 81 -65 17 -7 32 -16 32
-21 0 -4 5 -5 10 -2 6 3 10 1 10 -5 0 -6 5 -8 10 -5 6 3 10 2 10 -3 0 -9 30
-23 55 -26 6 -1 15 -5 22 -9 6 -4 15 -2 19 4 5 9 11 6 21 -7 8 -11 17 -15 21
-9 9 12 44 16 36 4 -7 -12 13 -11 38 2 15 8 19 8 14 0 -5 -7 0 -10 11 -8 29 4
43 17 43 38 0 10 4 19 8 19 9 0 7 136 -3 210 -4 25 -7 51 -7 58 -1 6 -6 12
-12 12 -6 0 -4 5 4 10 8 5 10 10 5 10 -6 0 -12 15 -14 33 -1 17 -4 48 -6 67
-5 47 -17 169 -19 197 -1 12 -5 25 -8 28 -4 4 -4 13 -2 20 3 7 1 22 -5 33 -7
13 -7 22 1 30 8 8 8 12 2 12 -6 0 -12 12 -13 28 -1 15 -3 38 -5 52 -2 14 -4
38 -5 53 -1 19 -5 26 -13 21 -7 -5 -8 -3 -2 7 12 19 12 33 -1 41 -6 5 -5 8 4
8 10 0 11 3 2 14 -8 10 -9 16 -1 21 6 3 7 11 3 18 -9 16 -10 58 -1 63 5 3 4
13 -2 23 -5 10 -6 21 -3 25 3 3 7 27 9 53 1 27 9 73 18 103 9 30 18 66 20 80
3 14 7 39 10 55 14 81 16 159 4 167 -10 6 -10 8 0 8 7 0 10 4 7 10 -3 6 -1 10
5 10 6 0 8 5 3 13 -4 6 -6 23 -4 36 1 13 -1 21 -6 18 -6 -4 -10 0 -10 8 0 8 4
12 9 9 4 -3 8 6 8 20 0 14 -6 26 -12 26 -10 0 -10 2 0 8 14 10 12 62 -3 62 -7
0 -7 3 0 8 14 10 16 64 2 55 -6 -4 -7 -1 -1 8 12 20 13 130 1 122 -6 -4 -7 -1
-1 8 11 18 13 138 2 145 -4 3 -5 10 -2 16 11 17 11 148 1 141 -5 -3 -5 2 0 13
19 38 0 651 -21 671 -3 3 -1 12 5 20 6 7 7 13 2 13 -5 0 -10 6 -11 13 0 13 -8
46 -17 80 -9 30 -49 111 -57 115 -4 2 -22 16 -40 32 -18 16 -45 35 -60 41 -16
6 -28 16 -28 21 0 5 -4 6 -10 3 -5 -3 -10 -1 -10 4 0 6 -6 11 -14 11 -7 0 -19
7 -26 15 -6 8 -15 14 -18 13 -4 -1 -31 10 -60 25 -29 15 -58 25 -65 21 -7 -4
-9 -4 -5 1 6 7 -75 52 -100 55 -4 1 -14 7 -22 14 -8 7 -30 18 -47 26 -18 7
-33 17 -33 22 0 5 -4 7 -9 4 -5 -3 -20 3 -34 14 -14 11 -28 20 -31 20 -3 0
-27 15 -53 32 -47 32 -83 54 -133 80 -14 7 -27 15 -30 18 -3 3 -44 25 -92 49
-49 24 -88 48 -88 53 0 5 -4 6 -10 3 -5 -3 -10 -3 -10 2 0 4 -18 17 -40 27
-22 11 -40 23 -40 28 0 4 -7 8 -15 8 -8 0 -15 5 -15 10 0 6 -6 10 -14 10 -8 0
-16 4 -18 8 -3 9 -104 82 -113 82 -2 0 -29 16 -60 35 -30 19 -65 40 -77 45
-13 6 -38 19 -55 30 -18 11 -33 17 -33 14 0 -2 -10 4 -22 16 -12 11 -27 20
-34 20 -6 0 -17 7 -24 15 -7 9 -20 13 -29 10 -8 -3 -12 -3 -9 1 8 7 -16 34
-30 34 -5 0 -21 11 -36 25 -15 14 -32 22 -38 19 -6 -4 -8 -3 -5 3 7 11 -36 53
-54 53 -5 0 -7 5 -4 10 3 6 2 10 -4 10 -5 0 -13 9 -16 21 -4 13 -12 18 -21 15
-8 -3 -13 -2 -9 3 3 5 -13 28 -34 50 -22 23 -36 41 -33 41 4 0 2 4 -4 8 -17
10 -74 126 -74 149 0 11 -3 23 -7 27 -7 7 -12 24 -18 66 -1 14 -4 25 -5 25 -1
0 -4 20 -6 45 -3 25 -11 48 -17 52 -9 6 -9 8 0 8 12 0 10 30 -2 50 -3 6 -1 10
5 10 6 0 8 4 5 10 -10 16 -12 80 -3 80 5 0 6 5 2 11 -6 10 -9 90 -3 104 1 3 3
10 4 15 1 6 4 12 5 15 1 3 3 8 4 13 4 23 30 72 38 72 5 0 7 4 3 9 -3 5 -1 12
5 16 5 3 10 0 10 -7 0 -11 2 -11 9 0 4 8 19 11 34 8 15 -3 27 0 27 6 0 6 5 7
13 1 6 -4 36 -8 65 -8 28 1 52 -3 52 -8 0 -5 8 -3 17 4 11 10 14 10 9 2 -7
-13 5 -16 56 -16 10 0 15 -3 13 -7 -3 -4 6 -11 20 -14 14 -4 25 -10 25 -15 0
-5 9 -7 20 -4 11 3 20 1 20 -5 0 -6 9 -9 19 -7 11 2 22 -3 25 -11 3 -9 10 -13
15 -9 6 3 14 -3 20 -12 6 -11 11 -13 11 -5 0 8 8 6 22 -8 12 -11 30 -20 40
-20 11 0 16 -5 13 -11 -4 -6 -1 -10 6 -8 28 3 50 -1 45 -10 -7 -11 22 -23 35
-15 5 3 9 -2 9 -11 0 -9 5 -13 10 -10 6 3 10 1 10 -5 0 -6 5 -8 10 -5 6 3 10
-1 10 -10 0 -9 4 -14 8 -11 5 3 20 -6 35 -20 14 -13 31 -24 37 -24 5 0 10 -4
10 -10 0 -5 11 -12 25 -16 14 -3 25 -10 25 -16 0 -5 5 -6 10 -3 6 3 10 0 10
-8 0 -8 18 -22 40 -32 22 -10 40 -22 40 -27 0 -4 9 -8 20 -8 11 0 20 -5 20
-10 0 -6 18 -17 40 -26 22 -9 40 -20 40 -26 0 -5 5 -6 10 -3 6 3 10 2 10 -3 0
-5 7 -9 15 -10 8 -1 21 -3 29 -4 8 -1 14 -6 13 -12 -1 -6 8 -11 19 -10 14 0
20 -4 17 -13 -4 -9 0 -11 13 -6 12 4 15 3 10 -5 -5 -8 2 -12 21 -12 22 0 25
-2 13 -10 -12 -8 -10 -10 8 -10 15 0 21 -4 16 -12 -5 -7 -2 -9 9 -5 9 3 18 0
21 -9 3 -8 12 -14 21 -14 8 0 15 -5 15 -11 0 -5 5 -7 10 -4 6 3 10 1 10 -5 0
-6 4 -9 9 -6 5 4 11 2 13 -2 4 -11 118 -72 134 -72 6 0 17 -7 24 -15 7 -8 16
-13 20 -10 4 2 16 -5 28 -15 12 -11 26 -20 32 -20 5 0 10 -5 10 -11 0 -5 4 -8
9 -4 5 3 16 -1 24 -9 11 -11 17 -12 27 -3 9 8 11 8 7 1 -6 -11 19 -29 36 -26
4 1 7 -3 7 -9 0 -6 7 -8 16 -5 8 3 12 2 9 -4 -3 -6 1 -10 10 -10 10 0 13 -5 9
-12 -5 -8 0 -9 14 -6 12 4 20 2 17 -2 -6 -9 34 -26 50 -21 5 1 7 0 3 -4 -4 -4
-1 -13 5 -20 9 -10 16 -10 27 -2 8 6 12 7 8 3 -11 -12 11 -36 31 -36 10 0 27
-9 39 -20 12 -11 29 -20 38 -20 10 0 14 -3 11 -7 -4 -3 3 -11 16 -18 15 -8 24
-8 29 -1 5 7 8 4 8 -7 0 -10 5 -15 10 -12 6 3 10 2 10 -4 0 -5 10 -13 23 -17
12 -4 39 -18 60 -31 22 -13 47 -25 58 -26 10 -1 19 -5 19 -10 0 -4 14 -13 30
-18 17 -6 30 -15 30 -21 0 -5 5 -6 10 -3 6 3 10 3 10 -2 0 -11 58 -43 77 -43
9 0 13 -3 10 -6 -10 -10 103 -65 116 -57 7 3 9 3 5 -2 -4 -4 2 -13 15 -20 68
-36 103 -54 152 -79 22 -12 45 -25 52 -31 7 -5 19 -16 28 -23 8 -7 20 -10 25
-7 6 3 10 1 10 -4 0 -6 6 -11 12 -11 17 0 88 -79 100 -109 20 -53 38 -245 42
-441 1 -69 5 -130 8 -136 4 -5 3 -16 -3 -24 -12 -21 -11 -33 3 -24 7 5 8 3 3
-6 -11 -18 -15 -60 -6 -60 4 0 8 -7 8 -15 0 -8 -4 -12 -9 -9 -10 6 -9 -4 1
-31 5 -11 4 -28 -1 -37 -6 -12 -5 -18 3 -18 8 0 8 -4 -1 -15 -9 -11 -9 -15 -1
-15 9 0 9 -5 1 -20 -7 -13 -7 -20 -1 -20 7 0 7 -9 1 -25 -6 -16 -6 -25 1 -25
6 0 6 -7 -1 -21 -9 -17 -8 -23 7 -36 10 -8 13 -12 7 -9 -16 8 -26 -36 -11 -46
9 -6 8 -8 -3 -8 -12 0 -13 -2 -1 -9 11 -7 11 -9 0 -14 -11 -4 -11 -6 -1 -6 10
-1 10 -6 2 -21 -7 -13 -7 -20 -1 -20 7 0 7 -9 1 -25 -6 -16 -6 -25 1 -25 6 0
6 -8 -2 -21 -8 -16 -8 -23 1 -29 9 -6 9 -9 -1 -13 -12 -5 -12 -6 0 -6 11 -1
11 -4 0 -18 -12 -15 -12 -16 1 -8 13 8 13 7 1 -8 -9 -12 -10 -17 -2 -17 9 0 9
-5 0 -22 -9 -16 -9 -23 0 -26 6 -2 11 -8 11 -13 0 -6 -5 -7 -11 -3 -8 5 -8 1
0 -13 7 -14 7 -23 -2 -32 -9 -9 -9 -14 2 -20 11 -7 11 -9 0 -14 -12 -5 -12 -6
0 -6 11 -1 11 -4 0 -18 -12 -15 -12 -16 1 -8 13 8 13 7 1 -9 -12 -14 -12 -19
-2 -26 11 -6 11 -9 0 -13 -12 -5 -12 -6 0 -6 11 -1 11 -4 0 -18 -12 -15 -12
-16 1 -8 13 8 13 7 1 -9 -12 -14 -12 -19 -2 -26 8 -5 10 -13 5 -21 -13 -21
-14 -59 -1 -59 7 0 6 -4 -3 -10 -12 -8 -12 -10 -1 -10 11 0 11 -3 0 -17 -12
-15 -12 -16 1 -8 13 8 13 7 0 -10 -11 -14 -12 -19 -2 -22 6 -3 12 -9 12 -14 0
-6 -5 -7 -11 -3 -8 5 -8 1 0 -13 7 -14 7 -23 -2 -33 -9 -10 -9 -13 0 -17 9 -3
9 -12 3 -29 -8 -19 -7 -23 3 -18 7 5 7 1 -2 -10 -12 -14 -12 -19 -2 -26 11 -6
11 -9 0 -13 -12 -5 -12 -6 0 -6 11 -1 11 -4 0 -18 -12 -15 -12 -16 1 -8 13 8
13 7 1 -8 -9 -12 -10 -17 -2 -17 9 0 9 -5 0 -22 -9 -17 -9 -23 0 -26 6 -2 8
-8 5 -13 -10 -18 -12 -59 -1 -59 5 0 4 -7 -3 -15 -8 -10 -9 -15 -1 -15 7 0 8
-8 1 -25 -7 -17 -6 -25 1 -25 8 0 7 -5 -1 -15 -10 -12 -10 -15 1 -15 12 0 12
-2 0 -9 -11 -7 -11 -9 0 -14 11 -4 11 -6 -1 -6 -13 -1 -13 -2 0 -11 12 -8 12
-10 1 -10 -10 0 -11 -3 -2 -14 8 -9 8 -16 2 -20 -7 -4 -7 -15 -1 -31 6 -16 6
-27 -1 -31 -7 -4 -7 -10 0 -18 6 -7 6 -17 1 -26 -6 -9 -4 -20 3 -29 9 -11 9
-13 0 -8 -8 5 -11 0 -10 -13 1 -11 5 -20 10 -20 5 0 4 -7 -3 -15 -10 -12 -10
-19 -2 -27 8 -8 8 -17 1 -30 -5 -10 -7 -24 -2 -31 10 -16 11 -47 1 -41 -4 3
-8 1 -8 -5 0 -5 5 -13 10 -16 7 -4 7 -13 0 -24 -6 -12 -5 -22 3 -31 9 -10 9
-11 0 -6 -15 8 -18 -10 -3 -19 7 -4 7 -13 0 -24 -6 -12 -5 -22 3 -31 9 -10 9
-11 0 -6 -15 8 -18 -10 -3 -19 7 -4 7 -13 0 -26 -8 -14 -7 -19 2 -19 10 0 9
-3 -1 -9 -12 -7 -12 -13 -3 -24 7 -7 9 -17 5 -21 -11 -11 -10 -96 2 -96 6 0 7
-3 0 -8 -12 -9 -13 -32 -1 -51 6 -9 5 -12 -1 -8 -11 7 -12 -61 -1 -79 4 -6 4
-14 0 -18 -11 -12 -9 -130 3 -138 7 -5 7 -8 -1 -8 -10 0 -17 -288 -16 -700 0
-164 4 -208 18 -232 5 -7 8 -22 9 -33 0 -12 6 -19 14 -17 12 3 12 0 1 -12 -9
-12 -9 -16 -1 -16 7 0 9 -4 6 -10 -3 -5 3 -10 15 -10 12 0 18 -5 15 -10 -4 -6
-12 -7 -18 -4 -7 4 -1 -5 13 -18 14 -14 27 -21 28 -17 5 13 42 11 42 -2 0 -5
-5 -7 -12 -3 -6 4 -3 -4 8 -18 10 -15 21 -22 22 -17 6 16 42 10 42 -7 0 -9 -5
-12 -12 -8 -7 4 -8 3 -4 -5 4 -6 11 -9 16 -6 5 3 13 -2 18 -11 6 -11 11 -13
16 -5 4 6 12 11 19 11 8 0 8 -3 0 -11 -9 -9 -6 -17 12 -30 13 -11 31 -19 40
-19 9 0 14 -4 11 -9 -3 -5 3 -11 15 -14 18 -5 18 -3 7 11 -12 15 -11 16 5 3 9
-7 17 -21 17 -30 0 -14 2 -14 10 -1 8 13 10 12 10 -4 0 -15 3 -16 14 -7 11 9
16 9 22 0 5 -8 3 -9 -6 -4 -9 5 -11 4 -6 -4 4 -6 15 -10 24 -9 10 2 16 -3 14
-10 -1 -8 2 -11 8 -7 5 3 10 1 10 -6 0 -9 3 -9 14 0 11 9 16 9 22 0 4 -8 3 -9
-4 -5 -7 4 -10 2 -7 -6 3 -8 15 -15 28 -15 12 -1 23 -7 25 -13 3 -8 8 -7 18 1
12 10 13 9 7 -6 -5 -15 -3 -17 11 -12 10 4 15 3 11 -3 -3 -6 -1 -10 5 -10 6 0
8 -5 4 -12 -6 -10 -4 -10 8 0 13 10 18 10 24 1 5 -8 3 -10 -7 -4 -8 5 -11 4
-6 -1 5 -5 14 -9 20 -9 7 -1 11 -7 9 -14 -1 -7 2 -10 7 -7 5 3 19 -2 32 -12
26 -20 60 -36 72 -34 4 1 7 -5 7 -14 0 -8 5 -12 10 -9 6 3 10 1 10 -5 0 -7 7
-10 15 -7 8 4 17 1 21 -5 5 -7 2 -8 -6 -3 -9 5 -11 4 -6 -4 4 -6 11 -9 16 -6
5 3 18 -3 30 -15 11 -11 29 -20 41 -20 13 0 18 -4 13 -12 -5 -8 -2 -9 9 -5 11
4 17 1 17 -9 0 -11 4 -12 19 -4 14 7 22 7 27 -2 5 -7 3 -8 -7 -3 -12 8 -12 6
0 -8 7 -9 17 -14 22 -11 5 3 9 0 9 -6 0 -6 5 -8 10 -5 6 3 10 0 10 -7 0 -9 3
-9 10 2 8 13 10 12 10 -3 0 -10 4 -15 10 -12 5 3 10 1 10 -6 0 -6 8 -9 20 -6
10 3 19 2 18 -2 -2 -17 3 -34 8 -28 4 3 18 -3 32 -14 20 -15 27 -17 34 -7 5 9
8 8 8 -6 0 -12 5 -16 16 -12 8 3 13 2 11 -2 -3 -4 1 -13 9 -20 8 -7 14 -9 14
-5 0 4 5 0 11 -10 8 -14 14 -16 25 -6 11 9 14 8 14 -3 0 -18 34 -51 43 -41 4
3 7 1 7 -5 0 -6 7 -9 17 -5 12 5 14 3 8 -7 -6 -10 -4 -12 9 -7 11 5 15 3 10
-5 -5 -8 -2 -9 11 -4 15 5 16 4 5 -9 -7 -9 -9 -15 -4 -14 12 3 65 -22 82 -38
8 -7 17 -11 22 -8 4 3 10 -2 14 -10 3 -8 12 -15 21 -15 8 0 15 -5 15 -11 0 -5
5 -7 10 -4 6 3 10 1 10 -5 0 -7 7 -9 16 -6 8 3 12 2 9 -4 -6 -9 8 -14 28 -11
4 0 6 -3 5 -8 -2 -5 1 -9 6 -9 5 0 12 -5 15 -10 3 -6 13 -12 21 -14 8 -2 21
-11 28 -21 7 -9 18 -15 23 -12 5 4 9 1 9 -5 0 -6 5 -8 10 -5 6 3 10 -1 10 -10
0 -11 5 -15 14 -12 8 3 16 1 18 -4 2 -5 13 -11 25 -12 12 0 21 -6 20 -12 -1
-5 4 -9 11 -7 6 1 12 -2 12 -8 0 -5 9 -10 20 -10 11 0 20 -4 20 -10 0 -5 12
-10 26 -10 14 0 23 -4 20 -8 -2 -4 10 -14 27 -21 18 -7 40 -17 50 -22 10 -5
23 -7 29 -3 7 4 8 3 4 -4 -4 -7 -1 -12 8 -12 9 0 16 -4 16 -9 0 -5 9 -11 20
-14 33 -9 34 -9 48 -26 8 -9 11 -10 7 -4 -4 9 -1 11 9 7 9 -3 13 -11 9 -18 -4
-6 1 -5 10 3 12 9 17 10 17 2 0 -8 14 -11 44 -8 29 2 43 0 40 -7 -2 -6 11 -12
31 -13 19 -1 35 3 35 8 0 6 4 8 9 5 5 -4 8 2 7 11 -2 12 -12 18 -29 17 -14 0
-23 4 -20 9 3 4 11 6 18 3 7 -2 21 5 32 16 12 14 13 18 3 13 -13 -8 -13 -7 0
9 12 15 14 52 12 200 -1 117 -6 182 -12 184 -6 2 -3 10 7 18 17 13 17 13 -2
14 -12 0 -16 3 -9 8 16 10 17 194 1 204 -9 6 -9 8 1 8 9 0 12 36 11 157 0 98
-4 151 -10 142 -5 -9 -9 -10 -9 -2 0 6 5 15 10 18 14 9 12 48 -2 64 -9 10 -9
12 -1 7 9 -5 12 25 11 119 -1 82 -5 125 -12 125 -7 0 -6 3 1 8 14 9 14 51 -1
71 -8 11 -8 13 0 8 15 -9 14 65 0 75 -8 5 -7 8 0 8 6 0 12 11 12 25 0 14 -5
22 -11 18 -6 -4 -7 -1 -1 8 12 19 13 111 2 126 -5 7 -5 14 2 18 7 4 7 13 -1
27 -8 15 -8 19 1 13 14 -9 10 27 -5 37 -6 5 -6 8 1 8 12 0 13 38 1 56 -3 6 -3
14 0 18 12 12 12 36 0 36 -8 0 -8 3 -2 8 14 10 17 32 5 32 -5 0 -10 5 -10 11
0 5 4 8 8 5 5 -3 9 1 9 9 0 8 -4 15 -9 15 -5 0 -6 5 -2 12 12 18 11 87 -1 80
-5 -3 -4 1 2 9 10 12 10 18 1 27 -9 9 -9 12 1 12 10 0 11 3 2 14 -9 10 -9 16
-1 21 7 4 8 11 1 18 -15 19 -15 21 -2 45 9 17 9 22 -1 22 -8 0 -9 3 -3 8 13 9
15 82 3 82 -5 0 -6 4 -3 10 11 19 14 50 4 55 -5 4 -6 12 -2 18 12 20 12 38 0
30 -7 -4 -6 1 2 10 11 14 11 17 0 17 -9 0 -10 3 -4 8 13 9 13 102 0 102 -5 0
-3 5 5 10 13 9 13 11 0 20 -12 8 -12 10 -1 10 10 0 11 3 2 14 -9 11 -9 16 0
21 8 6 7 10 -2 16 -8 5 -9 9 -3 9 6 0 11 7 11 15 0 8 -5 15 -11 15 -6 0 -4 5
4 10 12 8 13 11 1 19 -11 7 -11 9 0 14 12 4 11 7 -1 16 -8 6 -10 11 -5 11 6 0
11 9 12 20 1 13 -2 18 -10 13 -8 -4 -8 -1 1 9 10 13 10 17 0 21 -10 4 -10 6 0
6 6 1 12 8 12 17 0 8 -5 12 -11 9 -6 -4 -5 2 2 13 11 17 10 24 -2 38 -8 10 -9
15 -3 11 8 -5 12 6 12 33 1 24 -4 40 -11 40 -7 0 -6 4 3 10 13 9 13 11 0 20
-10 6 -11 10 -2 10 6 0 12 11 12 24 0 13 -6 27 -12 29 -10 4 -10 6 0 6 6 1 12
8 12 17 0 8 -4 13 -8 10 -5 -3 -9 1 -9 9 0 8 4 12 9 9 4 -3 8 7 8 21 0 14 -4
24 -8 21 -5 -3 -9 1 -9 9 0 8 4 12 9 9 4 -3 8 7 8 21 0 18 -4 24 -12 19 -10
-6 -10 -4 0 8 13 16 12 44 -2 67 -6 9 -5 12 2 7 7 -4 11 10 10 46 0 29 -5 56
-11 60 -9 6 -9 8 1 8 6 0 12 12 12 26 0 17 -4 23 -12 18 -10 -6 -10 -4 0 7 6
7 12 23 12 35 0 12 -6 25 -12 27 -10 4 -10 6 0 6 6 1 12 8 12 16 0 8 -6 15
-12 15 -9 0 -10 2 -2 8 8 5 12 52 11 140 0 120 -1 131 -16 120 -12 -10 -12 -8
2 8 17 21 24 49 9 40 -5 -3 -9 1 -9 9 0 8 4 12 8 10 4 -3 7 11 7 30 0 24 -4
33 -12 28 -8 -5 -8 -3 0 8 15 19 16 79 1 79 -9 0 -9 2 -1 8 12 7 16 65 4 57
-3 -2 -7 2 -7 10 0 8 4 12 7 10 4 -3 8 6 8 20 0 14 -4 23 -8 20 -3 -2 -7 2 -7
10 0 8 4 12 7 10 4 -3 8 6 8 20 0 14 -5 22 -11 18 -6 -4 -7 -1 -1 8 13 21 14
89 0 89 -6 0 -5 4 3 9 13 8 13 12 0 27 -9 11 -9 15 -1 10 14 -8 12 19 -2 43
-6 9 -5 12 2 7 14 -9 13 54 -2 73 -8 11 -8 13 1 8 7 -5 11 4 11 28 0 24 -4 33
-12 28 -8 -5 -8 -3 0 8 15 18 15 72 0 81 -8 6 -7 8 2 8 6 0 12 6 12 14 0 8 -6
17 -12 19 -10 4 -10 6 0 6 6 1 12 10 12 22 0 13 -4 18 -12 13 -8 -5 -8 -1 1
10 12 14 12 19 2 26 -11 6 -11 8 0 12 12 4 11 8 -1 23 -8 10 -10 16 -4 12 7
-4 11 16 11 63 0 47 -4 67 -11 63 -6 -4 -5 1 3 11 13 15 13 19 0 27 -8 5 -9 9
-3 9 15 0 16 60 1 60 -9 0 -9 2 -1 8 12 8 13 100 1 119 -4 6 -2 15 4 19 8 4 7
9 -2 15 -9 6 -10 9 -2 9 13 0 12 18 -1 39 -6 9 -5 12 2 7 7 -4 10 5 9 29 -1
19 -6 35 -12 35 -7 0 -7 3 0 8 14 10 14 102 1 102 -7 0 -8 3 -1 8 6 4 10 14
10 22 0 8 -4 18 -10 22 -6 5 -5 8 3 8 10 0 10 5 2 20 -6 11 -7 20 -3 20 5 0 8
14 8 30 1 17 -3 30 -8 30 -5 0 -4 6 2 14 7 9 8 17 3 20 -6 3 -7 20 -2 40 5 22
4 38 -3 45 -8 8 -7 11 2 11 7 0 9 5 4 13 -11 18 -12 37 -2 37 6 0 7 6 2 13 -4
6 -8 32 -9 57 -8 185 -8 186 -37 181 -5 -1 -6 3 -2 9 3 6 10 8 15 5 12 -8 17
25 9 63 -4 17 -3 35 3 38 5 3 4 12 -4 22 -10 12 -10 16 0 19 6 3 9 9 6 15 -10
16 -11 108 -1 108 4 0 5 5 2 10 -7 12 -9 198 -2 220 3 8 5 22 5 30 0 59 7 98
15 93 6 -4 7 -1 1 8 -5 8 -9 30 -10 49 -1 19 -3 36 -4 38 -1 1 -3 5 -4 10 -1
4 -6 23 -10 42 -5 19 -16 41 -25 48 -9 8 -10 10 -2 6 9 -5 7 2 -5 18 -10 14
-21 25 -23 23 -2 -2 -14 7 -28 21 -13 13 -29 21 -35 18 -6 -4 -8 -3 -5 3 6 10
-91 70 -105 65 -5 -1 -8 3 -8 9 0 6 -7 8 -16 5 -9 -4 -13 -2 -8 5 4 7 1 10 -7
7 -7 -2 -22 4 -33 14 -11 10 -28 18 -38 18 -10 0 -18 4 -18 8 0 6 -52 32 -72
36 -3 0 -10 5 -14 9 -9 9 -94 50 -107 51 -4 1 -12 8 -17 16 -7 11 -10 12 -10
2 0 -11 -3 -11 -14 1 -8 8 -28 20 -45 27 -17 7 -31 16 -31 21 0 5 -9 9 -20 9
-11 0 -20 4 -20 9 0 7 -36 22 -49 20 -2 0 -7 3 -10 8 -10 14 -71 45 -71 36 0
-4 -5 0 -11 10 -5 9 -18 17 -28 17 -11 0 -22 7 -25 16 -3 8 -10 13 -15 10 -5
-4 -16 0 -24 8 -8 8 -17 12 -21 9 -3 -4 -6 -1 -6 5 0 7 -6 12 -14 12 -7 0 -19
7 -26 15 -7 9 -19 14 -27 11 -8 -3 -11 -1 -8 4 3 6 -1 10 -9 10 -9 0 -16 4
-16 8 0 4 -17 14 -37 21 -21 7 -56 23 -78 36 -22 13 -44 23 -48 24 -4 0 -15 7
-23 16 -9 8 -22 15 -30 15 -8 0 -14 5 -14 10 0 6 -7 10 -15 10 -9 0 -26 9 -37
20 -17 15 -24 17 -30 8 -5 -9 -8 -8 -8 4 0 19 -73 62 -85 50 -5 -4 -5 -1 -1 6
6 10 -8 18 -17 10 -1 -2 -13 7 -27 20 -13 12 -30 22 -37 22 -7 0 -13 5 -13 10
0 6 -9 10 -20 10 -11 0 -23 7 -27 16 -3 9 -12 13 -21 9 -9 -3 -13 -3 -9 1 9 9
-23 33 -45 34 -10 0 -18 4 -18 9 0 5 -13 14 -30 21 -16 7 -30 17 -30 22 0 5
-10 7 -22 4 -13 -3 -18 -3 -11 0 18 8 -7 33 -26 26 -9 -3 -12 -1 -7 6 6 11 2
13 -20 12 -3 -1 -14 9 -24 22 -11 13 -19 20 -20 16 0 -4 -36 17 -80 47 -45 30
-85 55 -90 55 -6 0 -10 5 -10 10 0 6 -5 10 -10 10 -6 0 -28 11 -50 25 -22 14
-40 22 -40 19 0 -4 -9 3 -19 15 -11 12 -28 23 -39 24 -12 0 -19 4 -16 8 2 4
-5 10 -16 14 -11 3 -20 12 -20 18 0 7 -4 6 -10 -3 -5 -8 -10 -10 -10 -3 0 6
-30 28 -66 48 -37 20 -73 42 -81 50 -8 8 -22 15 -32 15 -9 0 -23 9 -31 19 -7
11 -17 18 -21 15 -5 -3 -17 4 -28 15 -11 11 -22 17 -25 14 -3 -3 -8 2 -12 11
-3 9 -10 14 -14 11 -4 -3 -13 2 -20 10 -7 8 -19 15 -26 15 -8 0 -14 5 -14 10
0 6 -6 10 -14 10 -8 0 -21 6 -28 13 -7 6 -29 20 -48 30 -19 9 -48 26 -65 36
-65 40 -114 66 -200 109 -49 24 -92 47 -95 51 -3 3 -12 7 -20 9 -8 2 -23 11
-32 19 -10 9 -18 12 -18 8 0 -4 -8 -2 -17 6 -10 8 -38 26 -63 39 -25 13 -54
32 -64 42 -11 10 -23 18 -28 18 -4 0 -42 21 -85 46 -43 26 -114 66 -158 89
-44 23 -98 52 -120 65 -42 24 -115 65 -150 84 -11 6 -22 13 -25 16 -12 13
-159 100 -169 100 -6 0 -11 4 -11 8 0 5 -12 15 -27 23 -16 8 -30 16 -33 19 -3
3 -34 21 -70 39 -36 19 -79 44 -97 57 -17 13 -36 24 -42 24 -6 0 -11 5 -11 12
0 6 -3 9 -6 5 -3 -3 -11 -2 -18 4 -23 20 -86 58 -86 53 0 -3 -7 2 -16 11 -9 9
-23 14 -31 11 -8 -3 -12 -2 -10 2 6 9 -13 26 -33 30 -8 2 -22 10 -30 17 -8 7
-18 14 -22 15 -34 7 -48 14 -48 20 0 8 -37 24 -50 22 -3 0 -12 5 -20 13 -14
11 -38 21 -65 27 -5 1 -16 8 -23 15 -7 7 -20 13 -28 13 -8 0 -14 5 -14 10 0 6
-8 10 -19 10 -10 0 -24 7 -31 15 -7 9 -19 14 -27 11 -7 -3 -13 -1 -13 4 0 6
-7 10 -15 10 -8 0 -15 5 -15 11 0 6 -7 8 -16 5 -8 -3 -12 -2 -9 4 3 5 -6 12
-20 16 -14 3 -25 10 -25 15 0 5 -6 9 -14 9 -7 0 -26 10 -41 21 -22 18 -29 20
-37 8 -8 -11 -9 -11 -4 3 5 16 -26 36 -47 30 -5 -1 -6 2 -3 7 3 5 -5 16 -19
25 -14 9 -25 13 -25 9 0 -5 -5 0 -11 10 -6 9 -14 15 -20 12 -5 -4 -9 -1 -9 6
0 7 -3 9 -7 6 -3 -4 -13 2 -21 14 -8 11 -20 18 -26 16 -7 -3 -19 3 -27 14 -7
10 -19 19 -26 19 -7 0 -13 5 -13 10 0 6 -7 10 -15 10 -9 0 -18 7 -21 15 -4 8
-15 15 -26 15 -10 0 -17 4 -13 10 3 5 -7 17 -22 27 -15 10 -35 25 -45 33 -37
33 -48 40 -48 33 0 -4 -5 0 -11 10 -5 9 -17 17 -24 17 -8 0 -15 4 -15 8 0 11
-56 43 -64 35 -3 -3 -6 1 -6 11 0 9 -4 14 -10 11 -5 -3 -10 -1 -10 5 0 6 -5 8
-11 5 -6 -4 -17 1 -24 11 -11 15 -14 16 -15 4 0 -13 -2 -13 -9 -1 -13 20 -28
22 -168 26 -82 1 -126 -1 -132 -9z m5324 -4275 c3 -5 2 -12 -3 -15 -5 -3 -9 1
-9 9 0 17 3 19 12 6z m-4750 -101 c-3 -5 -12 -10 -18 -10 -7 0 -6 4 3 10 19
12 23 12 15 0z m-125 -600 c0 -5 -2 -10 -4 -10 -3 0 -8 5 -11 10 -3 6 -1 10 4
10 6 0 11 -4 11 -10z m-246 -238 c3 -5 -1 -9 -9 -9 -8 0 -12 4 -9 9 3 4 7 8 9
8 2 0 6 -4 9 -8z m5891 -162 c-3 -5 -12 -10 -18 -10 -7 0 -6 4 3 10 19 12 23
12 15 0z m-5891 -78 c3 -5 -1 -9 -9 -9 -8 0 -12 4 -9 9 3 4 7 8 9 8 2 0 6 -4
9 -8z m5890 -440 c3 -5 -1 -9 -9 -9 -8 0 -12 4 -9 9 3 4 7 8 9 8 2 0 6 -4 9
-8z m12 -84 c3 -4 -1 -5 -10 -4 -8 1 -18 5 -22 8 -3 4 1 5 10 4 8 -1 18 -5 22
-8z m-741 -387 c3 -5 2 -12 -3 -15 -5 -3 -9 1 -9 9 0 17 3 19 12 6z m603 -296
c-3 -3 -9 2 -12 12 -6 14 -5 15 5 6 7 -7 10 -15 7 -18z m113 -822 c13 -16 12
-17 -3 -4 -17 13 -22 21 -14 21 2 0 10 -8 17 -17z m4 -132 c3 -5 2 -12 -3 -15
-5 -3 -9 1 -9 9 0 17 3 19 12 6z m-17 -326 c-3 -3 -9 2 -12 12 -6 14 -5 15 5
6 7 -7 10 -15 7 -18z m-2128 -1151 c0 -8 -19 -13 -24 -6 -3 5 1 9 9 9 8 0 15
-2 15 -3z m125 -102 c-3 -3 -11 0 -18 7 -9 10 -8 11 6 5 10 -3 15 -9 12 -12z
m1025 -578 c0 -8 -19 -13 -24 -6 -3 5 1 9 9 9 8 0 15 -2 15 -3z"/>
<path d="M6799 14416 c-2 -2 -24 -6 -49 -10 -91 -12 -115 -18 -134 -34 -15
-13 -18 -14 -11 -2 5 9 -1 7 -15 -5 -13 -11 -20 -13 -15 -6 5 8 -6 5 -23 -8
-18 -12 -32 -19 -32 -14 0 4 -4 3 -8 -4 -4 -6 -14 -13 -22 -15 -8 -2 -21 -10
-28 -18 -12 -13 -13 -13 -7 0 6 13 5 13 -7 0 -7 -8 -22 -17 -33 -18 -11 -2
-24 -10 -28 -18 -5 -8 -12 -12 -17 -9 -4 3 -11 -2 -14 -11 -3 -8 -10 -13 -14
-10 -5 3 -20 -6 -35 -20 -15 -14 -27 -22 -27 -17 0 4 -7 -2 -15 -13 -8 -10
-15 -15 -15 -10 0 6 -7 1 -15 -10 -8 -10 -15 -15 -15 -10 0 5 -7 3 -15 -4 -8
-7 -13 -15 -11 -19 3 -4 -4 -7 -14 -8 -10 -1 -28 -10 -39 -20 -12 -10 -30 -26
-41 -35 -11 -10 -24 -18 -30 -18 -5 0 -10 -5 -10 -11 0 -5 -4 -8 -8 -5 -11 7
-42 -30 -34 -40 4 -4 2 -4 -5 0 -12 6 -95 -31 -101 -46 -2 -5 -8 -6 -13 -2 -5
3 -9 0 -9 -6 0 -6 -4 -8 -10 -5 -5 3 -10 1 -10 -4 0 -6 -6 -11 -14 -11 -7 0
-25 -9 -40 -21 -15 -11 -34 -22 -44 -24 -9 -1 -16 -7 -15 -12 1 -5 -8 -10 -20
-10 -12 -1 -23 -7 -25 -13 -2 -5 -12 -10 -23 -10 -10 0 -19 -5 -19 -11 0 -5
-4 -8 -9 -4 -5 3 -12 1 -16 -5 -4 -6 -11 -8 -16 -5 -5 4 -9 1 -9 -5 0 -6 -4
-9 -9 -5 -6 3 -14 -3 -20 -12 -6 -10 -11 -14 -11 -10 0 10 -56 -21 -84 -45
-10 -10 -23 -15 -28 -12 -4 3 -8 0 -8 -6 0 -6 -5 -8 -10 -5 -6 3 -13 -1 -16
-9 -3 -9 -10 -13 -15 -10 -5 3 -9 0 -9 -6 0 -6 -4 -8 -10 -5 -5 3 -10 1 -10
-4 0 -6 -3 -10 -7 -9 -16 4 -83 -35 -76 -45 3 -5 1 -7 -5 -3 -6 3 -17 0 -25
-8 -8 -8 -17 -13 -19 -10 -3 2 -16 -6 -30 -19 -14 -13 -30 -21 -36 -19 -8 2
-10 -3 -5 -14 5 -14 3 -16 -11 -11 -10 4 -19 1 -23 -9 -3 -8 -12 -13 -20 -10
-7 3 -16 -1 -19 -9 -4 -8 -10 -12 -15 -9 -5 3 -9 1 -9 -3 0 -5 -9 -9 -21 -10
-31 -3 -71 -32 -63 -46 5 -9 4 -9 -6 0 -10 9 -17 10 -27 2 -7 -7 -13 -8 -13
-5 0 4 -6 1 -14 -6 -8 -7 -12 -16 -10 -20 3 -4 -5 -5 -16 -3 -11 2 -20 0 -20
-6 0 -5 -9 -9 -21 -9 -11 0 -18 -4 -15 -9 3 -5 -1 -12 -10 -15 -9 -3 -12 -2
-9 4 4 6 -15 -3 -41 -19 -26 -17 -51 -28 -56 -25 -4 3 -11 -2 -14 -10 -3 -9
-10 -13 -15 -10 -5 3 -12 -1 -15 -10 -3 -8 -12 -12 -20 -9 -8 3 -14 0 -14 -6
0 -6 -6 -11 -13 -11 -7 0 -24 -11 -39 -24 -14 -14 -29 -22 -32 -19 -3 4 -6 1
-6 -5 0 -7 -3 -11 -7 -10 -5 1 -23 -7 -40 -18 -26 -17 -30 -23 -20 -34 9 -10
7 -10 -7 0 -15 12 -20 12 -23 2 -3 -6 -9 -10 -14 -6 -5 3 -9 0 -9 -7 0 -7 -3
-9 -6 -6 -4 3 -18 -3 -32 -13 -13 -11 -31 -20 -39 -20 -8 0 -11 -4 -8 -10 5
-8 -9 -15 -17 -8 -2 1 -13 -7 -26 -17 -12 -11 -26 -21 -30 -21 -25 -5 -52 -18
-52 -24 0 -7 -52 -31 -73 -34 -4 -1 -11 -7 -16 -14 -5 -8 -12 -14 -17 -14 -19
0 -63 -32 -57 -42 4 -5 -1 -7 -10 -3 -10 3 -17 2 -17 -3 0 -6 -7 -10 -15 -10
-9 0 -20 -10 -25 -22 -5 -13 -9 -17 -9 -9 -1 11 -4 11 -16 1 -8 -7 -15 -9 -15
-4 0 5 -5 1 -11 -9 -6 -9 -14 -15 -20 -12 -5 4 -9 1 -9 -4 0 -6 -3 -10 -7 -9
-17 6 -72 -25 -66 -36 3 -6 3 -8 -2 -4 -4 4 -17 2 -29 -4 -11 -7 -25 -13 -31
-13 -5 0 -9 -9 -7 -20 2 -13 0 -16 -5 -8 -6 8 -30 1 -85 -26 -43 -21 -76 -40
-73 -42 2 -3 -7 -6 -21 -7 -33 -3 -46 -11 -38 -24 4 -7 2 -8 -4 -4 -12 7 -72
-19 -83 -36 -3 -5 -10 -10 -15 -11 -5 -1 -8 -6 -6 -10 1 -5 -2 -5 -8 -2 -6 4
-20 -1 -31 -11 -10 -9 -19 -14 -19 -10 0 4 -17 -6 -37 -21 -20 -15 -38 -27
-40 -25 -7 5 -69 -27 -90 -47 -13 -12 -23 -18 -23 -14 0 4 -7 -1 -15 -11 -8
-11 -15 -16 -15 -12 0 4 -15 -3 -32 -16 -18 -13 -37 -23 -41 -23 -4 0 -12 -7
-17 -15 -5 -8 -10 -12 -10 -8 0 11 -97 -46 -111 -65 -3 -5 -8 -8 -10 -7 -13 5
-39 -15 -39 -29 0 -12 -2 -13 -9 -3 -7 11 -11 11 -22 -1 -18 -18 -62 -42 -71
-39 -5 1 -8 -3 -8 -8 0 -6 -7 -10 -15 -10 -8 0 -15 -5 -15 -11 0 -5 -4 -8 -8
-5 -12 7 -64 -29 -55 -38 4 -4 1 -4 -8 -1 -8 3 -24 -2 -34 -12 -11 -10 -32
-24 -47 -32 -15 -8 -36 -22 -47 -32 -10 -10 -21 -15 -24 -12 -4 3 -13 -2 -22
-11 -9 -9 -25 -16 -35 -16 -10 0 -20 -3 -22 -7 -1 -5 -19 -16 -38 -26 -79 -41
-99 -55 -93 -61 4 -4 0 -4 -10 0 -12 4 -17 1 -17 -10 0 -9 -3 -15 -7 -14 -14
3 -82 -35 -77 -44 3 -4 -1 -5 -9 -2 -8 3 -20 -2 -27 -11 -7 -8 -17 -15 -22
-15 -5 0 -24 -11 -42 -25 -18 -14 -36 -25 -39 -25 -4 0 -33 -17 -64 -37 -32
-21 -75 -45 -96 -55 -20 -9 -37 -22 -37 -28 0 -5 -3 -9 -7 -8 -16 4 -53 -14
-48 -23 4 -5 -1 -9 -9 -9 -9 0 -16 -4 -16 -10 0 -5 -7 -7 -15 -3 -10 3 -15 0
-13 -8 2 -7 -3 -13 -10 -14 -7 0 -16 -5 -20 -11 -4 -6 -20 -14 -35 -18 -21 -5
-27 -11 -23 -23 5 -12 3 -13 -6 -6 -15 12 -73 -19 -60 -32 4 -4 2 -5 -4 -2 -6
4 -24 -5 -38 -18 -15 -14 -32 -25 -37 -25 -6 0 -7 -5 -3 -11 4 -7 1 -10 -7 -7
-7 2 -22 -3 -33 -13 -10 -10 -34 -25 -52 -34 -19 -9 -34 -20 -34 -26 0 -6 -4
-8 -8 -5 -5 3 -18 -4 -30 -14 -12 -11 -26 -20 -32 -20 -5 0 -10 -3 -10 -8 0
-4 -15 -13 -32 -21 -18 -8 -51 -26 -73 -40 -22 -14 -43 -26 -47 -27 -5 -1 -9
-2 -10 -4 -2 -1 -11 -3 -21 -5 -10 -2 -25 -12 -34 -22 -8 -10 -12 -13 -9 -7 7
15 -86 -33 -100 -51 -6 -8 -14 -12 -17 -8 -4 3 -7 1 -7 -5 0 -7 -6 -12 -14
-12 -8 0 -18 -5 -22 -12 -5 -7 -3 -8 6 -3 9 5 11 4 6 -4 -4 -6 -11 -9 -16 -6
-5 3 -26 -4 -47 -15 -21 -11 -44 -20 -51 -20 -7 0 -10 -5 -7 -10 3 -6 -1 -13
-9 -16 -14 -5 -16 -35 -13 -224 1 -142 5 -216 12 -212 6 3 4 -2 -4 -11 -12
-15 -13 -74 -7 -355 3 -185 5 -436 4 -557 -2 -333 -2 -1489 1 -1663 2 -114 5
-151 14 -145 9 5 9 3 1 -8 -14 -18 -14 -89 0 -89 6 0 5 -4 -3 -9 -13 -8 -13
-12 0 -27 8 -10 9 -15 3 -11 -7 4 -10 -28 -10 -103 0 -71 4 -106 11 -102 6 3
5 0 -1 -9 -16 -20 -16 -16 -21 -1754 -4 -1508 -3 -1590 13 -1602 10 -7 13 -13
6 -13 -18 0 -3 -27 25 -45 24 -16 24 -16 13 5 -6 12 -9 24 -6 28 3 3 6 0 6 -6
0 -6 10 -16 21 -23 17 -8 20 -8 14 1 -5 8 -3 11 6 8 18 -7 51 10 44 22 -4 6 1
7 11 3 11 -4 22 1 30 12 8 10 14 16 14 12 0 -4 23 5 50 19 28 14 50 30 50 36
0 5 4 6 10 3 5 -3 10 -2 10 4 0 6 7 8 15 5 8 -4 15 -1 15 5 0 5 18 16 40 22
22 7 40 16 40 21 0 4 9 8 20 8 11 0 20 5 20 12 0 6 3 9 6 5 3 -3 41 12 84 34
44 21 84 39 89 39 6 0 11 5 11 11 0 5 5 7 10 4 6 -3 10 -1 10 6 0 7 3 9 7 6 9
-10 83 71 84 91 0 10 3 26 5 37 13 55 14 321 14 2780 -1 2815 -1 2835 -13
2835 -4 0 -3 9 3 20 7 13 7 27 2 38 -5 9 -6 26 -1 37 11 29 11 37 -2 29 -6 -3
-5 4 3 17 8 13 14 31 13 39 0 8 4 18 10 23 6 4 5 10 -5 17 -13 8 -12 10 4 10
12 0 16 5 13 14 -4 10 -1 13 9 9 8 -3 14 -1 12 5 -2 5 34 46 78 90 45 45 79
84 76 87 -3 3 -1 5 5 5 6 0 50 38 99 85 48 47 90 85 92 85 2 0 9 6 17 13 42
39 193 150 285 207 30 19 61 40 68 47 7 7 20 13 28 13 8 0 14 5 14 10 0 6 6
10 13 10 7 0 24 11 39 25 15 14 34 25 43 25 8 0 15 3 15 8 0 4 15 13 33 21 17
8 34 17 37 20 3 4 24 15 48 25 23 11 42 23 42 28 0 4 3 7 8 6 4 -1 54 22 112
51 148 74 164 83 172 95 4 6 8 7 8 3 0 -8 67 28 80 42 3 4 23 15 45 26 22 11
42 23 45 26 3 3 24 16 46 27 23 12 48 27 56 34 7 7 57 36 111 63 53 28 97 53
97 57 0 5 3 7 8 6 11 -2 65 25 86 44 11 10 26 18 33 18 7 0 13 5 13 10 0 6 4
10 9 10 5 0 45 22 88 48 43 27 89 55 103 63 14 8 27 16 30 19 3 3 25 16 50 29
54 28 282 180 291 193 3 6 10 9 15 9 5 0 19 9 32 19 12 11 24 20 26 20 2 0 47
27 99 60 53 33 101 60 106 60 6 0 11 5 11 10 0 6 5 10 11 10 6 0 42 20 80 45
38 25 71 45 73 45 5 0 171 101 274 167 28 18 52 30 52 27 0 -4 9 1 20 11 11
10 20 14 20 9 0 -5 5 -1 10 8 6 10 19 15 30 13 11 -2 20 0 20 6 0 5 5 9 11 9
7 0 18 8 26 18 8 9 12 11 8 5 -4 -8 6 -6 27 5 18 9 35 20 36 25 2 4 8 5 13 1
5 -3 9 0 9 6 0 6 4 9 9 5 5 -3 16 2 24 10 9 8 22 15 31 15 8 0 18 5 21 10 4 6
10 8 15 5 4 -3 10 1 13 9 3 7 19 16 35 19 16 3 36 12 43 20 8 7 20 12 27 9 6
-2 12 1 12 7 0 6 3 11 8 10 15 -2 52 14 52 22 0 5 6 9 14 9 7 0 25 9 40 21 14
11 30 17 36 14 5 -3 10 -2 10 3 0 6 14 15 30 21 17 5 30 15 30 21 0 6 4 9 9 5
5 -3 12 -1 16 5 3 5 23 17 43 27 20 9 40 22 44 27 5 7 8 7 8 1 0 -6 3 -6 8 1
4 6 44 28 90 49 45 22 82 43 82 48 0 4 5 5 10 2 6 -4 17 -1 25 5 8 7 15 9 15
5 0 -4 7 -2 15 5 8 7 15 9 15 4 0 -4 5 -3 12 4 7 7 22 12 35 12 13 0 23 4 23
10 0 5 9 8 21 7 18 -3 21 -12 23 -73 2 -38 7 -85 10 -105 21 -104 8 -472 -19
-569 -2 -8 -6 -26 -9 -40 -6 -34 -37 -110 -45 -110 -3 0 -12 -14 -19 -30 -8
-17 -18 -28 -23 -24 -5 3 -9 0 -9 -6 0 -6 -12 -22 -26 -35 -15 -14 -24 -25
-20 -25 4 0 -9 -13 -27 -30 -19 -16 -37 -30 -40 -30 -4 0 -19 -12 -35 -27 -16
-16 -38 -34 -50 -42 -12 -8 -18 -19 -15 -25 3 -6 3 -8 -2 -4 -5 5 -22 -3 -39
-15 -17 -13 -39 -26 -48 -30 -10 -3 -18 -11 -18 -17 0 -6 -4 -8 -10 -5 -5 3
-10 1 -10 -5 0 -6 -4 -9 -9 -5 -5 3 -17 -5 -25 -17 -9 -12 -16 -19 -16 -15 0
4 -25 -9 -55 -29 -30 -20 -55 -41 -55 -46 0 -5 -4 -7 -9 -4 -5 3 -14 -1 -21
-9 -7 -8 -16 -13 -20 -10 -4 3 -13 -2 -20 -10 -7 -8 -17 -15 -23 -15 -5 0 -16
-8 -24 -17 -8 -11 -11 -12 -7 -3 5 8 -8 3 -27 -11 -18 -14 -44 -29 -56 -33
-13 -4 -23 -12 -23 -17 0 -5 -3 -8 -7 -7 -5 1 -28 -9 -53 -22 -25 -13 -48 -23
-52 -22 -5 1 -8 -2 -8 -8 0 -5 -4 -10 -9 -10 -14 0 -51 -17 -96 -45 -22 -13
-59 -34 -82 -46 -23 -12 -39 -27 -36 -32 3 -6 1 -7 -5 -3 -7 4 -29 -2 -50 -13
-20 -11 -55 -28 -77 -37 -22 -10 -43 -22 -46 -27 -3 -5 -10 -8 -15 -8 -17 1
-44 -10 -44 -19 0 -5 -13 -11 -30 -15 -16 -4 -30 -11 -30 -16 0 -5 -5 -9 -12
-9 -6 0 -34 -11 -62 -24 -28 -13 -82 -38 -121 -56 -38 -18 -73 -37 -76 -42 -3
-5 -8 -9 -10 -7 -9 5 -49 -13 -49 -22 0 -5 -3 -8 -7 -8 -21 3 -33 -2 -27 -13
4 -7 3 -8 -4 -4 -12 7 -74 -21 -80 -37 -2 -4 -7 -5 -12 -2 -8 5 -39 -10 -105
-51 -22 -14 -55 -31 -72 -39 -18 -9 -33 -20 -33 -26 0 -5 -5 -7 -11 -3 -6 3
-24 -3 -40 -15 -15 -11 -35 -21 -42 -21 -8 0 -26 -9 -39 -20 -14 -10 -28 -16
-32 -13 -3 3 -6 1 -6 -5 0 -6 -14 -13 -31 -17 -17 -4 -33 -13 -36 -21 -3 -8
-9 -12 -13 -9 -5 3 -11 1 -15 -5 -4 -6 -10 -8 -15 -5 -4 3 -11 -2 -14 -11 -3
-8 -10 -13 -15 -10 -5 3 -20 -3 -34 -15 -15 -11 -29 -20 -32 -19 -20 1 -25 -1
-19 -12 5 -8 2 -9 -9 -5 -9 3 -19 2 -22 -4 -4 -5 -11 -7 -16 -4 -5 4 -9 1 -9
-5 0 -6 -10 -14 -22 -19 -13 -5 -40 -21 -61 -35 -21 -14 -41 -26 -45 -26 -4 0
-19 -11 -34 -24 -14 -14 -29 -22 -32 -19 -3 4 -6 1 -6 -5 0 -7 -9 -12 -20 -12
-10 0 -30 -10 -42 -22 -13 -13 -29 -24 -35 -25 -18 -4 -103 -66 -103 -75 0 -4
-6 -7 -12 -5 -7 1 -12 -3 -11 -10 2 -8 -4 -10 -14 -6 -11 4 -14 3 -9 -6 4 -6
4 -11 -1 -10 -27 5 -79 -32 -65 -46 4 -5 1 -5 -5 -1 -8 4 -30 -10 -58 -38 -25
-26 -45 -44 -45 -42 0 6 -72 -57 -124 -109 -28 -27 -46 -43 -42 -35 5 8 -3 2
-17 -13 -14 -16 -28 -28 -31 -28 -20 3 -26 0 -21 -9 3 -5 0 -8 -7 -5 -7 3 -34
-14 -61 -38 -26 -24 -49 -42 -51 -39 -7 6 -75 -92 -69 -101 2 -4 0 -13 -5 -20
-10 -11 -18 -53 -29 -142 -2 -22 -6 -574 -7 -1226 -1 -652 -6 -1190 -9 -1197
-4 -6 -3 -14 3 -17 8 -5 8 -11 0 -20 -7 -8 -7 -15 -1 -19 5 -4 6 -19 3 -34 -9
-36 -8 -64 2 -81 5 -8 5 -12 0 -9 -5 4 -10 -76 -10 -190 -1 -109 -5 -278 -8
-377 -9 -217 -9 -615 -1 -780 3 -66 7 -199 10 -295 2 -96 7 -215 11 -265 3
-49 6 -98 6 -107 -1 -10 5 -18 11 -18 7 0 6 -4 -3 -10 -12 -8 -12 -10 -1 -10
10 0 11 -3 2 -13 -6 -8 -8 -17 -4 -21 4 -4 13 4 21 16 12 21 11 9 -4 -27 -5
-11 1 -15 20 -15 18 0 26 5 27 18 0 14 2 14 7 2 4 -8 13 -16 20 -18 8 -1 11 2
7 8 -3 5 3 10 14 10 11 0 23 4 26 10 4 6 -1 7 -12 4 -15 -5 -15 -4 -3 5 9 6
18 7 24 1 12 -12 68 21 62 37 -3 7 0 15 6 19 6 4 8 3 5 -3 -12 -19 22 -23 35
-4 7 10 18 19 23 21 6 1 9 7 7 13 -2 6 5 4 14 -4 12 -9 15 -9 10 -1 -4 7 -1
12 8 12 9 0 16 3 16 8 0 4 17 16 38 27 20 11 43 26 51 33 7 7 29 22 50 32 47
26 75 43 81 51 3 4 25 17 50 29 25 12 48 27 51 32 3 5 9 9 13 9 9 -2 180 99
187 111 3 5 8 9 10 7 5 -3 92 52 100 63 3 5 9 9 13 9 12 -1 96 43 96 51 0 4 7
8 15 8 16 0 117 57 126 72 3 5 9 10 12 10 19 0 47 12 47 20 0 5 4 7 9 4 5 -4
11 -2 13 2 3 9 190 120 198 118 3 0 12 5 20 12 22 19 214 131 295 172 39 19
73 40 77 45 4 6 8 7 8 3 0 -4 23 6 50 22 28 17 55 30 60 30 4 0 10 3 12 8 2 4
21 16 43 27 22 11 56 29 75 40 19 11 41 20 49 22 8 1 17 5 20 10 3 4 42 26 86
48 44 22 82 43 85 46 6 6 37 19 46 18 4 0 10 3 13 8 5 7 177 95 191 98 11 2
246 119 255 128 6 4 24 17 40 27 17 11 39 25 50 32 10 7 31 24 46 38 30 28
116 90 125 89 3 0 13 9 23 20 15 18 132 94 216 141 18 10 43 24 56 32 13 7 27
18 31 23 4 6 8 6 8 2 0 -5 12 0 28 10 15 11 38 24 52 31 14 7 72 37 130 67 58
30 108 55 113 55 4 0 17 9 29 20 12 11 30 20 39 20 10 0 19 4 21 8 2 5 41 31
88 57 87 50 149 92 162 110 4 5 8 7 8 2 0 -8 54 37 79 67 9 10 21 24 27 30 12
12 47 75 50 89 1 4 2 12 3 18 0 5 6 7 11 4 6 -4 10 -3 9 2 -1 4 -1 10 0 13 4
10 14 75 15 98 0 12 3 22 7 22 3 0 6 10 6 23 2 30 11 92 13 92 5 0 10 82 15
250 3 99 7 214 8 255 2 41 -1 83 -5 92 -4 9 -4 19 1 22 4 3 9 76 9 162 1 85 4
160 7 165 4 5 0 9 -7 9 -8 0 -9 3 -3 8 12 8 13 71 2 89 -4 7 0 16 10 22 13 7
14 10 4 11 -8 0 -11 3 -8 7 4 3 1 13 -6 21 -8 10 -8 13 -1 9 8 -5 11 6 9 36
-2 23 2 48 7 55 6 7 7 12 1 12 -5 0 -9 15 -8 33 1 17 -3 35 -9 39 -7 5 -7 8
-1 8 7 0 10 29 8 80 -1 43 2 82 7 85 6 4 3 16 -6 31 -11 16 -12 24 -5 24 7 0
10 4 7 8 -9 15 -10 157 -1 171 6 11 4 13 -10 7 -14 -5 -15 -3 -8 6 11 14 10
185 -2 433 -4 77 -8 173 -9 212 0 40 -3 73 -6 73 -3 0 -5 21 -5 48 0 26 -2 52
-4 57 -10 19 -9 35 0 35 6 0 7 6 2 13 -4 6 -8 23 -9 37 -1 14 -5 52 -9 85 -3
33 -7 70 -8 83 0 12 -4 22 -8 22 -3 0 -6 12 -5 27 1 31 -20 39 -79 31 -29 -4
-165 -71 -165 -81 0 -4 -4 -5 -10 -2 -5 3 -10 1 -10 -4 0 -6 -9 -11 -20 -11
-11 0 -20 -5 -20 -12 0 -6 -3 -8 -7 -5 -3 4 -16 1 -27 -6 -12 -8 -38 -20 -59
-26 -20 -7 -35 -17 -32 -21 3 -5 -4 -7 -15 -5 -11 2 -20 0 -20 -6 0 -5 -7 -9
-15 -9 -8 0 -15 -4 -15 -10 0 -5 -3 -9 -7 -8 -14 3 -63 -25 -63 -35 0 -6 -3
-8 -6 -4 -6 6 -89 -36 -116 -61 -10 -8 -18 -12 -18 -9 0 7 -17 -6 -74 -59 -20
-18 -36 -31 -36 -27 0 3 -9 -4 -19 -16 -11 -12 -28 -23 -39 -24 -12 0 -19 -4
-17 -8 3 -3 -13 -12 -35 -19 -22 -7 -38 -16 -35 -19 2 -4 -17 -15 -41 -25 -24
-10 -44 -22 -44 -28 0 -5 -4 -6 -10 -3 -5 3 -10 1 -10 -5 0 -6 -3 -9 -7 -7
-13 8 -55 -12 -48 -23 4 -6 11 -7 17 -4 7 4 8 2 4 -5 -6 -9 -11 -9 -21 -1 -14
11 -70 -11 -58 -24 4 -4 0 -4 -9 -1 -8 3 -22 0 -29 -8 -8 -7 -20 -12 -27 -9
-6 2 -12 -1 -12 -8 0 -6 -4 -8 -10 -5 -5 3 -10 1 -10 -4 0 -6 -3 -10 -7 -9
-10 3 -56 -22 -65 -35 -3 -6 -14 -12 -23 -13 -9 -1 -25 -10 -34 -18 -10 -9
-22 -16 -28 -16 -5 0 -21 -10 -34 -22 -14 -13 -29 -23 -34 -23 -17 0 -115 -66
-115 -78 0 -5 -3 -7 -6 -4 -4 4 -19 -2 -34 -13 -16 -11 -33 -20 -39 -20 -6 0
-11 -4 -11 -8 0 -8 -60 -36 -72 -33 -5 0 -8 -4 -8 -11 0 -6 -3 -8 -7 -5 -9 9
-34 -13 -27 -24 3 -5 -2 -6 -11 -3 -9 4 -24 -1 -34 -10 -10 -9 -21 -13 -24 -9
-4 3 -7 1 -7 -6 0 -7 -4 -10 -9 -6 -5 3 -17 -2 -25 -11 -9 -8 -16 -13 -16 -9
0 3 -9 1 -20 -5 -11 -6 -18 -15 -15 -21 4 -5 11 -6 17 -3 7 4 8 2 4 -5 -5 -7
-12 -9 -19 -3 -16 12 -47 11 -47 -1 0 -6 -3 -7 -7 -4 -8 9 -34 -13 -28 -23 3
-5 -4 -6 -16 -3 -12 4 -32 -3 -51 -17 -17 -12 -28 -16 -24 -9 5 10 4 10 -6 -1
-7 -8 -20 -16 -28 -18 -8 -2 -16 -8 -18 -13 -2 -5 -10 -9 -18 -9 -8 0 -14 -4
-14 -10 0 -5 -7 -10 -15 -10 -8 0 -15 -5 -15 -12 0 -6 -3 -9 -6 -5 -3 3 -16
-5 -29 -18 -12 -14 -24 -22 -27 -20 -3 3 -11 -1 -18 -10 -7 -8 -19 -15 -27
-15 -8 0 -12 -4 -9 -8 3 -5 -6 -15 -19 -22 -14 -7 -25 -20 -25 -29 0 -13 -2
-13 -9 -3 -6 10 -10 8 -14 -8 -3 -12 -10 -19 -16 -15 -6 3 -11 1 -11 -5 0 -6
-12 -15 -26 -20 -15 -6 -22 -14 -18 -22 4 -6 3 -8 -4 -4 -6 3 -18 -1 -26 -10
-9 -8 -16 -12 -16 -8 0 3 -7 1 -15 -6 -8 -7 -15 -10 -15 -6 0 3 -9 -3 -20 -14
-11 -11 -26 -20 -34 -20 -8 0 -16 -7 -20 -15 -3 -8 -11 -15 -17 -15 -16 0 -50
-40 -43 -51 3 -5 -1 -6 -9 -3 -15 5 -47 -20 -47 -37 0 -6 -4 -8 -9 -5 -17 11
-28 -42 -26 -131 1 -51 4 -96 8 -99 3 -4 2 -15 -4 -25 -5 -11 -6 -19 -2 -19 4
0 9 -96 10 -213 2 -199 8 -350 18 -477 12 -149 6 -343 -10 -371 -3 -5 -8 -25
-10 -44 -3 -20 -12 -67 -21 -105 -24 -106 -21 -219 6 -269 5 -10 6 -21 3 -25
-3 -3 -2 -6 4 -6 10 0 26 -36 24 -52 -1 -5 3 -8 7 -8 5 0 9 -6 10 -12 0 -7 7
-31 15 -53 33 -88 38 -204 14 -325 -1 -8 -6 -21 -10 -27 -5 -7 -5 -17 -2 -23
3 -5 1 -10 -4 -10 -6 0 -11 -7 -11 -15 0 -8 -4 -15 -10 -15 -5 0 -10 -6 -10
-14 0 -7 -11 -29 -24 -49 -13 -19 -22 -38 -18 -41 3 -3 0 -6 -7 -6 -7 0 -9 -5
-6 -10 4 -6 3 -10 -2 -9 -4 1 -14 1 -22 0 -11 -1 -11 -4 0 -18 12 -14 12 -16
-1 -11 -19 6 -54 -27 -45 -43 5 -7 4 -10 -3 -6 -15 10 -43 -3 -35 -16 4 -6 0
-8 -10 -4 -10 3 -17 2 -17 -3 0 -6 -7 -10 -15 -10 -7 0 -18 -6 -22 -14 -4 -8
-12 -15 -18 -16 -27 -6 -55 -21 -55 -30 0 -6 -4 -8 -10 -5 -5 3 -10 1 -10 -5
0 -6 -5 -8 -12 -4 -7 5 -9 2 -5 -8 4 -12 1 -14 -14 -11 -11 3 -28 -2 -38 -11
-10 -9 -21 -13 -26 -9 -4 5 -6 1 -2 -8 4 -13 1 -16 -13 -12 -10 3 -29 -2 -42
-11 -14 -9 -28 -13 -31 -9 -4 3 -7 2 -7 -4 0 -9 -29 -22 -65 -29 -5 -1 -13 -3
-17 -4 -5 -1 -14 -3 -20 -4 -7 -1 -12 -8 -10 -16 3 -12 1 -12 -9 -3 -12 12
-42 6 -34 -7 3 -5 -6 -7 -20 -4 -14 2 -25 1 -25 -4 0 -5 -7 -9 -15 -9 -8 0
-15 4 -15 9 0 5 -4 7 -9 4 -12 -8 -44 62 -37 80 4 10 2 12 -6 8 -7 -5 -9 0 -6
14 4 12 3 22 0 22 -4 0 -8 23 -10 52 -1 28 -8 59 -15 67 -9 12 -9 13 1 7 8 -5
12 0 12 13 0 12 -6 21 -12 21 -9 0 -8 4 2 10 8 5 10 10 5 10 -6 0 -10 21 -10
48 0 29 -6 52 -15 60 -8 8 -9 11 -2 7 8 -4 12 1 12 15 0 12 -4 19 -9 15 -5 -3
-13 -1 -16 5 -4 6 -3 10 2 9 20 -4 24 2 12 18 -8 9 -9 14 -3 10 11 -6 13 28 2
39 -6 5 1 35 12 54 2 3 -2 15 -9 28 -10 19 -10 26 1 40 11 13 11 15 -2 7 -13
-7 -13 -6 -2 7 10 13 10 17 0 20 -10 4 -10 8 1 21 7 10 9 17 4 17 -13 0 -11
53 2 63 7 5 7 10 0 15 -13 10 -15 42 -3 42 6 0 5 6 -2 15 -10 12 -10 18 0 30
10 12 10 15 0 15 -10 0 -10 3 0 15 9 11 9 15 1 15 -7 0 -9 5 -5 12 10 16 10
61 -1 78 -5 9 -4 11 3 6 15 -9 15 -1 1 26 -6 12 -7 18 -1 14 16 -10 9 68 -8
82 -13 10 -13 11 3 6 21 -7 24 24 5 45 -7 8 -8 11 -2 8 7 -4 11 8 12 33 1 22
3 45 4 52 2 7 -4 12 -12 10 -13 -2 -13 -1 0 10 12 10 15 37 15 118 0 58 -4
110 -8 117 -4 6 -4 14 1 17 13 8 7 153 -7 170 -12 14 -12 16 1 11 9 -4 15 0
15 10 0 10 -6 14 -16 10 -14 -4 -14 -4 -1 7 15 13 20 94 6 117 -4 6 -4 11 1
11 4 0 1 5 -7 10 -12 8 -12 10 5 10 15 0 17 2 6 9 -8 5 -10 14 -6 21 4 7 2 16
-6 21 -12 7 -12 9 0 9 11 0 11 3 0 17 -8 9 -9 14 -3 10 13 -8 13 35 -1 45 -6
5 -4 8 5 8 13 0 13 1 0 10 -12 8 -12 10 -1 10 11 0 11 3 1 15 -10 12 -10 15 1
15 10 0 11 2 2 8 -8 5 -9 13 -3 22 5 8 5 21 -1 32 -7 13 -6 18 3 18 8 0 9 3 3
8 -13 9 -14 261 -1 281 6 9 5 12 -1 8 -6 -4 -9 21 -9 64 1 38 5 69 10 69 6 0
5 5 -2 12 -7 7 -8 17 -2 29 7 12 6 20 0 24 -8 5 -7 11 1 21 9 11 8 14 -2 14
-11 0 -11 2 1 10 13 9 13 11 0 20 -12 7 -12 10 -1 10 7 0 11 6 7 15 -3 8 -2
15 2 15 4 0 6 26 6 57 -1 32 3 64 8 71 7 8 7 12 -3 12 -10 0 -10 3 -2 11 6 6
9 18 6 25 -3 8 0 14 7 14 10 0 10 3 0 15 -9 11 -9 15 -1 15 7 0 9 5 6 10 -3 6
0 10 7 10 8 0 9 3 3 8 -12 8 -13 22 -2 39 4 6 1 14 -5 16 -10 4 -10 6 0 6 6 1
12 12 12 25 0 14 5 28 11 31 6 4 8 13 5 21 -3 8 -1 14 5 14 6 0 7 5 4 10 -3 6
-1 10 5 10 7 0 10 5 8 12 -2 6 4 20 15 31 10 10 16 25 13 33 -3 8 -2 13 2 10
5 -3 17 9 27 26 22 38 106 122 168 168 26 19 60 45 75 58 35 30 205 141 255
167 20 11 37 24 37 29 0 5 3 6 7 3 3 -4 20 2 37 12 17 10 58 33 91 50 32 18
71 41 86 52 14 10 29 16 33 12 3 -3 6 -1 6 5 0 7 16 18 35 26 19 8 35 20 35
25 0 6 7 8 15 5 8 -4 15 -1 15 5 0 6 7 11 15 11 8 0 24 9 35 20 11 11 20 18
20 15 0 -2 21 8 48 23 48 29 148 84 212 118 19 10 41 19 48 20 8 1 22 10 31
18 10 9 21 13 24 9 4 -3 7 -1 7 6 0 7 4 10 9 7 4 -3 23 6 41 19 19 14 39 25
46 25 6 0 17 7 24 15 7 8 16 13 20 10 5 -3 11 -1 14 4 4 5 26 19 51 31 25 12
45 25 45 29 0 4 6 8 13 8 6 0 30 11 52 25 22 13 47 28 55 31 8 4 31 17 50 28
19 12 80 45 135 74 55 29 138 73 185 99 47 26 155 81 240 124 85 42 157 79
160 82 3 3 10 6 17 7 6 1 47 20 92 42 45 22 81 37 81 33 0 -3 7 3 15 14 8 10
15 16 15 12 0 -8 167 78 191 98 8 8 19 14 22 14 4 0 43 25 88 55 45 30 83 55
86 55 3 0 86 65 172 135 31 25 111 105 106 105 -2 0 8 13 23 29 15 17 32 36
37 43 6 7 26 33 46 58 44 55 75 122 85 181 8 48 7 264 -2 291 -3 9 0 19 6 23
6 3 7 12 3 18 -12 18 -12 33 -17 559 -2 268 -7 492 -11 498 -3 5 -3 15 1 22
10 16 12 78 2 84 -4 3 -4 15 0 27 5 12 7 33 5 47 -4 33 -4 58 0 98 2 18 0 35
-5 38 -5 3 -6 10 -3 15 4 5 8 58 10 117 2 59 7 118 10 132 3 14 8 61 11 105
10 121 12 140 14 145 1 3 1 10 0 15 -1 6 -4 29 -5 51 -4 53 -13 84 -26 84 -6
0 -7 -5 -3 -11 3 -6 -5 -4 -18 5 -14 9 -26 14 -29 12z m-4175 -9270 c-3 -9
-10 -13 -15 -10 -5 3 -3 11 4 19 15 16 19 13 11 -9z m17 -13 c-12 -20 -14 -14
-5 12 4 9 9 14 11 11 3 -2 0 -13 -6 -23z m-47 1 c3 -8 2 -12 -4 -9 -6 3 -10
-2 -11 -12 0 -11 -3 -13 -6 -5 -5 13 2 42 11 42 2 0 7 -7 10 -16z m67 -7 c-10
-9 -11 -8 -5 6 3 10 9 15 12 12 3 -3 0 -11 -7 -18z m-118 -2 c-3 -9 -8 -14
-10 -11 -3 3 -2 9 2 15 9 16 15 13 8 -4z m-1453 -919 c0 -2 -7 -7 -16 -10 -8
-3 -12 -2 -9 4 6 10 25 14 25 6z m-100 -26 c0 -5 -5 -10 -11 -10 -5 0 -7 5 -4
10 3 6 8 10 11 10 2 0 4 -4 4 -10z"/>
<path d="M7132 6882 c-7 -9 -10 -12 -7 -5 8 18 -47 12 -63 -7 -8 -8 -11 -9 -7
-2 8 15 0 15 -26 1 -11 -6 -17 -15 -12 -22 4 -7 0 -7 -10 2 -15 12 -17 11 -17
-4 0 -14 -3 -15 -15 -5 -12 10 -16 8 -24 -11 -5 -13 -10 -18 -10 -10 -1 10 -4
11 -14 2 -8 -6 -17 -8 -21 -4 -4 4 -4 -1 0 -10 3 -10 3 -17 -2 -16 -5 1 -12 0
-16 -1 -5 -1 -12 -3 -16 -4 -5 0 -16 -9 -26 -18 -10 -10 -24 -18 -32 -18 -8 0
-14 -7 -14 -17 0 -9 -3 -13 -7 -10 -9 10 -34 -14 -26 -26 3 -6 1 -7 -5 -3 -6
4 -22 -4 -34 -16 -13 -13 -26 -22 -30 -20 -5 1 -8 -5 -8 -14 0 -8 -4 -12 -10
-9 -5 3 -10 1 -10 -5 0 -6 -4 -8 -10 -5 -5 3 -10 1 -10 -4 0 -6 -5 -11 -11
-11 -17 0 -50 -41 -42 -53 3 -6 1 -7 -5 -3 -6 4 -9 14 -6 24 5 16 5 16 -6 0
-6 -10 -18 -18 -26 -18 -8 0 -12 -4 -9 -10 3 -5 -7 -13 -22 -16 -15 -4 -34
-15 -43 -24 -10 -10 -12 -11 -5 -1 7 10 1 8 -17 -4 -15 -11 -28 -24 -28 -28 0
-5 -4 -5 -10 -2 -5 3 -16 3 -22 -2 -7 -4 -17 -8 -23 -8 -5 0 -10 -5 -10 -12 0
-6 -4 -15 -9 -20 -5 -5 -6 -3 -2 5 8 13 -6 17 -18 5 -4 -5 -11 -8 -14 -8 -21
-2 -52 -18 -47 -24 2 -5 -7 -7 -20 -5 -14 1 -25 -1 -25 -6 0 -8 -32 -21 -64
-25 -10 -1 -21 -7 -25 -12 -11 -17 -68 -52 -74 -47 -6 6 -77 -33 -77 -42 0 -3
5 -2 12 2 7 4 8 3 4 -4 -4 -6 -13 -9 -20 -6 -8 3 -20 -3 -27 -14 -8 -10 -24
-22 -37 -26 -18 -6 -21 -11 -12 -21 10 -11 8 -13 -8 -10 -13 2 -31 -6 -46 -22
-15 -14 -30 -22 -37 -17 -8 4 -9 3 -5 -4 4 -7 1 -12 -9 -12 -9 0 -13 -4 -10
-10 3 -5 -5 -12 -19 -16 -13 -3 -27 -12 -30 -21 -3 -8 -11 -11 -18 -7 -8 5 -9
0 -5 -15 4 -18 3 -20 -9 -10 -11 9 -14 9 -14 -1 0 -8 -3 -10 -7 -7 -3 4 -13
-2 -21 -14 -8 -11 -20 -18 -28 -15 -8 3 -14 -1 -14 -10 0 -10 -6 -14 -15 -10
-10 3 -15 -1 -16 -12 0 -11 -2 -12 -6 -4 -4 9 -10 7 -22 -7 -10 -12 -21 -18
-24 -15 -8 8 -58 -27 -52 -36 3 -4 -3 -7 -13 -6 -10 0 -16 -5 -14 -14 3 -12 1
-12 -9 -3 -10 10 -15 8 -24 -10 -6 -13 -18 -21 -29 -19 -12 2 -16 -1 -10 -9 4
-8 3 -10 -4 -5 -13 8 -55 -17 -47 -27 3 -4 2 -5 -2 -2 -3 3 -18 -5 -32 -17
-18 -17 -21 -18 -11 -4 14 18 14 19 -8 7 -12 -7 -20 -16 -17 -21 3 -6 -1 -7
-9 -4 -10 4 -16 1 -16 -7 0 -11 -3 -11 -10 1 -9 13 -10 13 -11 0 -1 -8 -1 -19
1 -25 1 -5 -4 -5 -11 2 -9 9 -15 8 -26 -3 -8 -8 -20 -11 -26 -7 -6 4 -8 0 -4
-10 5 -12 0 -14 -21 -11 -15 3 -23 2 -19 -3 5 -4 -7 -13 -25 -19 -18 -6 -32
-16 -31 -22 1 -5 -7 -8 -17 -5 -11 3 -20 0 -20 -6 0 -6 -3 -10 -7 -10 -20 3
-34 -2 -28 -11 3 -6 -1 -7 -10 -4 -9 4 -25 -2 -37 -12 -12 -11 -18 -13 -13 -5
5 10 4 12 -3 7 -7 -4 -12 -15 -13 -24 0 -10 -3 -12 -5 -5 -4 9 -15 6 -40 -7
-19 -11 -34 -16 -34 -12 0 4 -5 -1 -11 -11 -6 -9 -14 -15 -20 -12 -5 4 -12 -1
-15 -10 -4 -9 -13 -14 -20 -11 -8 3 -14 2 -14 -2 0 -7 -76 -46 -91 -47 -3 0
-13 -8 -23 -18 -10 -9 -22 -15 -27 -12 -5 4 -9 1 -9 -4 0 -6 -6 -10 -12 -9 -7
2 -12 -2 -11 -9 2 -7 -4 -10 -12 -7 -8 3 -29 -4 -46 -17 -18 -13 -29 -16 -24
-8 6 9 1 8 -15 -4 -14 -10 -33 -20 -42 -24 -10 -3 -18 -11 -18 -19 0 -7 -8
-18 -17 -23 -10 -6 -14 -11 -9 -11 5 0 3 -7 -4 -15 -8 -10 -9 -15 -2 -15 6 0
9 -7 6 -15 -9 -22 27 -129 37 -113 7 10 9 8 9 -5 0 -10 4 -16 8 -13 5 3 18 -3
29 -14 12 -10 24 -16 27 -13 3 4 6 1 6 -6 0 -7 4 -9 10 -6 5 3 7 0 4 -9 -4
-10 0 -14 13 -12 10 2 24 -5 31 -15 15 -21 38 -26 26 -6 -5 8 -3 8 9 -2 9 -7
14 -18 10 -25 -4 -6 1 -5 10 3 13 10 17 10 17 1 0 -7 7 -10 14 -7 10 4 13 1 9
-9 -3 -7 -1 -14 5 -14 6 0 13 6 15 13 4 10 6 10 6 0 1 -7 10 -13 22 -13 12 0
17 -4 13 -11 -5 -8 -1 -8 14 0 16 9 21 7 25 -9 4 -17 27 -26 41 -17 2 1 14 -9
26 -23 12 -14 19 -18 15 -10 -4 8 0 7 9 -4 9 -11 22 -16 31 -12 11 4 14 2 9
-6 -5 -8 -2 -9 9 -5 10 4 16 2 14 -6 -1 -7 4 -11 11 -9 6 1 12 -5 12 -13 0 -8
6 -12 14 -9 7 3 20 -2 29 -10 10 -10 17 -12 19 -5 2 7 10 4 18 -7 12 -14 12
-16 1 -9 -10 5 -12 4 -7 -4 6 -9 11 -9 24 1 12 10 14 10 8 1 -4 -8 -1 -13 9
-13 10 0 13 -5 9 -12 -5 -8 0 -7 11 2 10 8 16 10 12 4 -8 -14 20 -27 35 -17 6
3 8 1 5 -4 -4 -6 1 -17 10 -24 14 -12 16 -12 9 1 -4 8 0 6 8 -4 14 -18 21 -15
17 7 -1 5 3 6 8 2 6 -3 8 -12 4 -20 -3 -10 1 -15 12 -15 9 0 14 -4 10 -9 -3
-6 4 -8 15 -6 11 2 20 -1 20 -8 0 -7 9 -18 21 -25 12 -8 19 -9 15 -4 -3 5 1 9
9 9 8 0 12 -3 10 -7 -2 -3 0 -12 6 -20 6 -11 9 -12 9 -2 0 7 5 10 10 7 6 -4 8
-10 5 -15 -3 -5 4 -7 15 -5 11 2 20 0 20 -4 0 -5 14 -14 30 -21 17 -7 30 -17
30 -23 0 -6 3 -7 7 -4 3 4 12 -1 20 -11 9 -10 11 -11 7 -2 -7 13 -6 13 12 0
10 -8 22 -19 25 -23 3 -4 15 -9 27 -10 11 0 19 -4 16 -8 -2 -4 4 -13 13 -20
12 -10 14 -10 9 -1 -4 6 -3 12 2 12 6 0 13 -7 16 -16 4 -9 13 -14 22 -10 8 3
13 2 10 -3 -7 -11 22 -23 35 -15 5 3 8 0 7 -8 -2 -7 3 -12 10 -10 6 1 12 -2
12 -8 0 -5 7 -10 16 -10 9 0 12 -5 8 -12 -5 -8 0 -7 11 2 10 8 16 10 12 4 -4
-6 3 -20 16 -30 14 -13 18 -14 12 -4 -6 10 -4 9 6 -2 9 -9 19 -14 23 -11 3 4
6 1 6 -6 0 -8 7 -11 15 -7 9 3 15 0 15 -10 0 -8 5 -12 10 -9 6 3 10 1 10 -4 0
-6 7 -11 15 -11 8 0 15 -4 15 -9 0 -5 7 -12 16 -15 8 -3 12 -2 9 3 -3 5 0 13
6 17 7 4 9 3 5 -4 -8 -13 22 -44 35 -37 5 4 9 1 9 -5 0 -6 5 -8 10 -5 6 3 10
-1 10 -9 0 -11 9 -16 27 -16 14 0 23 -3 20 -7 -4 -3 1 -12 11 -19 12 -9 21 -9
30 -1 10 8 12 7 10 -4 -2 -8 5 -14 17 -14 11 -1 19 -6 18 -13 -2 -7 4 -9 14
-5 12 5 14 3 8 -7 -5 -8 -4 -11 3 -6 6 3 13 2 17 -4 4 -6 11 -8 16 -5 5 4 9 1
9 -5 0 -6 4 -9 9 -6 5 3 12 -2 15 -11 6 -15 8 -15 16 -3 7 10 10 11 10 3 0 -7
6 -13 14 -13 8 0 16 -7 20 -15 3 -8 12 -12 20 -9 8 3 17 0 22 -7 5 -8 3 -10
-6 -4 -8 5 -11 4 -6 -3 3 -6 16 -9 27 -7 16 3 18 1 10 -9 -9 -11 -5 -13 21
-10 18 1 27 0 21 -3 -17 -6 -17 -27 0 -20 8 3 28 -8 45 -24 18 -17 32 -26 32
-22 0 4 5 0 11 -9 5 -10 16 -18 24 -18 7 0 16 -6 18 -12 4 -9 6 -9 6 2 1 10 6
8 17 -8 8 -12 24 -22 35 -22 10 0 19 -4 19 -10 0 -5 5 -10 11 -10 7 0 18 -8
25 -17 13 -17 14 -17 8 2 -4 17 -3 16 8 -3 8 -12 17 -19 21 -16 4 4 7 0 7 -10
0 -14 4 -15 20 -6 14 8 20 8 20 0 0 -6 5 -8 10 -5 6 4 9 1 8 -7 -2 -7 3 -12
10 -10 6 1 12 -3 12 -9 0 -5 5 -7 10 -4 6 3 10 -2 10 -12 0 -15 2 -16 10 -3 7
11 10 11 10 2 0 -7 4 -11 9 -8 5 3 12 -1 15 -10 3 -8 10 -12 16 -9 5 3 10 1
10 -4 0 -6 8 -11 18 -11 13 0 14 -2 4 -9 -10 -6 -5 -10 16 -14 16 -3 37 -13
45 -22 9 -8 20 -15 26 -15 6 0 11 -5 11 -11 0 -8 6 -7 17 2 9 8 14 9 10 3 -4
-7 0 -14 8 -18 8 -3 15 0 15 7 0 7 7 3 15 -7 8 -11 15 -14 15 -8 0 7 7 12 15
12 8 0 15 -6 15 -12 0 -8 3 -9 8 -3 4 6 31 10 60 10 30 0 55 2 58 6 2 3 15 5
29 4 14 -2 25 0 25 5 0 4 12 10 28 13 61 11 86 19 106 30 12 6 23 12 26 12 3
1 19 8 35 15 17 7 32 14 35 14 30 7 100 41 100 48 0 5 4 7 9 3 5 -3 40 9 78
26 37 17 73 32 78 33 6 1 16 5 23 9 6 5 12 5 12 2 0 -4 7 1 16 9 8 9 22 16 30
16 19 0 148 69 152 81 2 5 7 7 12 4 4 -2 19 6 34 20 14 13 26 21 26 18 0 -3 6
-1 13 5 13 11 135 76 242 130 39 19 73 40 76 45 3 5 8 8 10 7 9 -3 57 19 64
30 3 5 10 8 15 5 4 -3 13 2 20 10 7 8 19 15 26 15 8 0 14 4 14 9 0 5 8 12 18
15 30 11 87 45 77 46 -5 0 6 8 25 17 19 10 40 22 47 28 36 30 43 35 47 35 3 0
24 13 48 29 24 15 79 48 123 71 44 24 96 53 115 65 19 12 39 22 43 23 5 0 17
11 28 23 10 12 19 19 19 15 0 -4 12 1 28 12 43 31 109 62 116 55 3 -4 6 -1 6
6 0 7 10 10 25 7 14 -3 25 -1 25 3 0 4 7 8 15 8 8 0 15 -5 15 -11 0 -6 5 -5
12 2 15 15 32 16 22 1 -4 -8 0 -8 15 0 11 7 21 8 21 3 0 -4 9 -8 19 -8 11 0
17 4 15 8 -3 4 0 8 5 8 6 0 11 -7 11 -16 0 -8 5 -12 11 -8 6 3 15 0 20 -7 7
-12 9 -11 9 1 0 12 2 12 9 2 4 -7 20 -14 35 -16 16 -2 31 -7 34 -12 4 -5 17
-9 29 -8 12 1 20 -2 18 -7 -3 -4 -1 -10 5 -14 5 -3 10 0 10 7 1 8 6 6 15 -6 8
-11 15 -16 15 -12 0 5 11 1 25 -8 14 -9 30 -14 34 -11 5 3 11 1 13 -4 1 -5 10
-11 18 -13 8 -2 22 -10 30 -18 8 -8 22 -16 30 -18 8 -2 22 -10 31 -18 8 -8 18
-14 22 -14 9 0 102 -63 105 -72 2 -4 13 -8 23 -8 11 0 18 -4 15 -9 -3 -5 4
-12 17 -16 12 -4 25 -8 30 -10 4 -1 19 -3 33 -4 16 -1 23 -5 18 -13 -5 -8 -2
-9 9 -5 12 4 17 1 17 -11 0 -13 2 -14 9 -3 7 11 9 11 14 0 5 -12 8 -11 17 1 9
12 10 11 5 -8 -4 -12 -3 -22 2 -21 26 5 42 -3 40 -20 -1 -12 -6 -17 -16 -13
-9 3 -12 1 -7 -6 4 -7 2 -13 -3 -13 -6 -1 -16 -2 -21 -3 -6 0 -21 -14 -35 -30
-14 -16 -25 -26 -25 -22 0 4 -12 -2 -26 -13 -15 -12 -33 -21 -41 -21 -8 0 -11
-4 -8 -10 3 -5 -1 -10 -9 -10 -9 0 -16 -5 -16 -11 0 -5 -3 -8 -7 -6 -11 7 -33
-19 -25 -28 4 -4 -1 -5 -10 -3 -9 1 -24 -6 -33 -17 -9 -11 -14 -13 -10 -5 4 8
-3 4 -15 -10 -12 -14 -19 -18 -15 -10 4 8 -3 4 -14 -9 -12 -13 -21 -19 -21
-15 0 5 -5 1 -11 -9 -6 -9 -14 -15 -20 -12 -5 4 -9 1 -9 -4 0 -6 -7 -11 -16
-11 -8 0 -13 -4 -9 -9 3 -5 -4 -12 -15 -16 -11 -4 -18 -11 -15 -16 4 -5 -3 -9
-15 -9 -11 0 -23 -7 -26 -15 -4 -8 -10 -13 -14 -10 -5 3 -15 -2 -23 -10 -9 -8
-21 -15 -27 -15 -6 0 -8 -5 -4 -12 4 -7 3 -8 -5 -4 -6 4 -25 -3 -43 -15 -17
-13 -28 -17 -24 -10 5 8 -2 6 -18 -4 -14 -10 -23 -22 -19 -29 4 -6 -2 -4 -12
4 -10 8 -16 10 -12 4 4 -7 0 -15 -9 -18 -10 -4 -13 -2 -9 7 4 6 0 4 -8 -5 -8
-10 -18 -18 -23 -18 -18 -1 -84 -37 -78 -42 3 -4 -3 -4 -15 -1 -13 3 -21 1
-21 -6 0 -7 -4 -10 -9 -6 -5 3 -12 1 -16 -5 -4 -6 -11 -8 -16 -5 -5 4 -9 1 -9
-5 0 -6 -4 -8 -10 -5 -5 3 -10 1 -10 -5 0 -6 -4 -8 -10 -5 -5 3 -10 2 -10 -4
0 -6 -12 -14 -26 -17 -18 -5 -23 -11 -19 -22 3 -9 3 -13 -1 -10 -4 4 -16 3
-27 -3 -15 -9 -18 -8 -12 3 3 7 -1 4 -10 -7 -9 -11 -19 -20 -23 -21 -14 -2
-47 -18 -52 -25 -3 -4 -12 -9 -20 -11 -8 -2 -39 -18 -68 -36 -29 -17 -57 -32
-63 -32 -6 0 -7 -4 -4 -10 3 -5 -3 -10 -14 -10 -12 0 -21 -4 -21 -9 0 -5 -9
-11 -21 -14 -12 -3 -18 -10 -15 -16 4 -6 -2 -8 -14 -6 -11 2 -20 -1 -20 -6 0
-6 -5 -7 -10 -4 -6 3 -13 -1 -16 -9 -3 -9 -14 -16 -24 -16 -9 0 -30 -10 -46
-22 -15 -13 -24 -16 -19 -8 6 12 4 11 -11 -1 -10 -9 -29 -20 -42 -24 -14 -4
-21 -12 -18 -20 3 -9 -2 -12 -16 -10 -12 3 -27 -3 -35 -13 -9 -10 -11 -11 -7
-2 7 13 5 13 -9 1 -9 -7 -14 -17 -12 -22 3 -4 -4 -6 -15 -4 -11 2 -20 -1 -20
-6 0 -6 -4 -7 -10 -4 -5 3 -10 2 -10 -4 0 -5 -9 -13 -20 -16 -12 -4 -17 -11
-13 -18 4 -7 -1 -6 -10 2 -15 12 -17 11 -17 -3 0 -10 -4 -14 -10 -11 -5 3 -10
2 -10 -3 0 -9 -37 -25 -52 -23 -7 1 -11 -12 -10 -29 0 -3 -11 -6 -26 -7 -14 0
-32 -9 -40 -20 -7 -10 -18 -17 -23 -16 -5 2 -9 -2 -9 -8 0 -5 -5 -7 -10 -4 -6
3 -13 -1 -16 -10 -4 -9 -13 -14 -20 -11 -9 3 -14 -1 -14 -12 0 -15 -2 -15 -10
-2 -5 8 -10 10 -10 4 0 -5 -16 -16 -35 -24 -19 -8 -35 -17 -35 -22 0 -4 -7 -8
-16 -8 -9 0 -12 -5 -8 -12 5 -8 2 -9 -9 -5 -10 3 -17 2 -17 -3 0 -6 -6 -9 -12
-7 -7 1 -12 -3 -11 -10 1 -6 -4 -14 -13 -17 -10 -4 -13 -1 -9 7 4 6 1 5 -7 -3
-7 -8 -34 -25 -60 -38 -27 -13 -48 -28 -48 -33 0 -6 -4 -8 -8 -5 -5 3 -18 -4
-30 -14 -12 -11 -26 -20 -32 -20 -5 0 -10 -4 -10 -10 0 -5 -7 -10 -16 -10 -8
0 -12 -4 -9 -10 3 -5 -1 -10 -9 -10 -9 0 -16 -5 -16 -11 0 -5 -4 -7 -10 -4 -5
3 -10 -1 -10 -9 0 -10 -7 -13 -20 -11 -11 2 -18 0 -15 -6 4 -5 -3 -9 -14 -9
-12 0 -21 -5 -21 -12 0 -6 -3 -8 -7 -5 -4 4 -20 -5 -36 -20 -17 -16 -26 -21
-22 -13 5 10 1 8 -13 -4 -12 -11 -22 -15 -22 -10 0 5 -4 3 -9 -5 -5 -8 -17
-16 -26 -17 -9 -1 -25 -10 -36 -20 -10 -9 -19 -13 -19 -9 0 4 -9 0 -20 -10
-11 -10 -20 -15 -20 -11 0 3 -15 -1 -32 -11 -18 -9 -43 -17 -55 -16 -13 0 -23
-5 -23 -11 0 -6 -5 -4 -10 4 -5 8 -10 10 -10 4 0 -7 -12 -12 -27 -12 -16 0
-41 -3 -58 -7 -36 -9 -137 -13 -149 -7 -4 2 -29 6 -54 8 -51 4 -139 27 -192
50 -76 34 -141 68 -151 81 -6 7 -15 10 -20 7 -5 -3 -9 0 -9 5 0 6 -7 11 -16
11 -9 0 -12 5 -8 12 5 7 2 9 -8 6 -8 -4 -20 2 -27 14 -7 11 -15 17 -18 14 -3
-3 -14 4 -24 15 -9 11 -21 21 -26 22 -4 1 -7 6 -5 10 1 5 -1 6 -6 3 -4 -2 -23
9 -41 25 -19 16 -37 29 -42 29 -4 0 -14 6 -21 13 -28 25 -82 60 -94 60 -7 0
-11 4 -8 9 5 7 -10 12 -28 9 -5 0 -8 4 -8 9 0 6 -5 10 -10 10 -6 0 -20 9 -32
20 -12 11 -28 20 -35 20 -7 0 -13 5 -13 12 0 6 -3 8 -7 5 -3 -4 -13 2 -20 13
-8 11 -18 18 -23 15 -4 -3 -11 2 -14 11 -3 8 -10 12 -16 9 -5 -3 -10 -2 -10 4
0 13 -55 42 -64 34 -3 -4 -6 1 -6 10 0 9 -7 17 -15 17 -9 0 -18 7 -21 15 -4 8
-10 13 -14 10 -4 -3 -13 2 -20 10 -7 8 -17 15 -22 15 -5 0 -18 9 -30 20 -12
11 -28 20 -35 20 -7 0 -13 4 -13 8 0 5 -16 14 -35 22 -19 8 -35 17 -35 21 0 4
-9 6 -20 4 -11 -2 -18 0 -15 6 4 5 -2 12 -12 16 -10 3 -21 12 -26 19 -4 7 -14
11 -22 8 -8 -4 -15 -1 -15 5 0 6 -6 8 -14 5 -8 -3 -19 3 -25 14 -6 11 -19 19
-28 18 -10 -2 -26 5 -37 16 -11 10 -25 18 -32 18 -6 0 -17 7 -24 15 -7 9 -19
14 -27 11 -8 -3 -12 -2 -10 2 6 9 -19 33 -27 25 -3 -4 -6 -1 -6 6 0 7 -4 9
-10 6 -5 -3 -10 -1 -10 6 0 7 -3 10 -6 6 -3 -3 -11 -1 -18 4 -44 37 -60 47
-117 74 -35 17 -66 32 -69 35 -11 11 -105 55 -112 53 -4 -2 -8 1 -8 5 0 4 -16
14 -35 21 -19 7 -35 17 -35 22 0 6 -4 7 -10 4 -5 -3 -10 -1 -10 5 0 6 -4 8
-10 5 -5 -3 -10 -2 -10 4 0 8 -40 27 -48 22 -1 -1 -10 5 -18 14 -9 8 -19 13
-24 10 -5 -3 -10 -2 -12 2 -5 14 -145 83 -151 76 -4 -3 -7 -1 -7 5 0 7 -6 12
-13 12 -7 0 -23 9 -35 20 -12 11 -28 20 -35 20 -8 0 -20 7 -27 15 -7 8 -18 15
-26 15 -7 0 -30 11 -50 25 -20 14 -41 22 -47 18 -5 -3 -7 -2 -4 4 4 6 -28 28
-71 49 -42 21 -81 45 -85 52 -4 6 -19 12 -32 12 -13 0 -25 5 -27 10 -2 6 -13
12 -25 13 -12 0 -19 5 -17 9 5 7 -18 12 -38 9 -5 0 -8 3 -8 8 0 10 -39 27 -52
23 -5 -1 -8 2 -8 6 0 8 -46 35 -63 36 -4 1 -12 8 -17 16 -5 8 -10 11 -10 7 0
-5 -7 -2 -15 5 -16 14 -18 16 -85 68 -54 42 -78 62 -94 75 -23 21 -66 45 -66
38 0 -5 -4 -3 -8 3 -4 6 -47 30 -97 53 -49 24 -98 47 -109 53 -10 5 -29 12
-42 14 -13 2 -35 6 -49 8 -14 3 -25 2 -25 -2 0 -4 -12 -8 -27 -9 -25 -1 -58
-7 -73 -13 -3 -1 -8 -2 -12 -1 -5 0 -8 -4 -8 -10 0 -6 -7 -9 -15 -5 -8 3 -15
1 -15 -4 0 -6 -3 -9 -7 -8 -5 1 -24 -4 -43 -11 -19 -8 -38 -13 -42 -12 -5 0
-8 -4 -8 -10 0 -5 -4 -8 -9 -4 -5 3 -12 1 -16 -5 -4 -6 -11 -8 -16 -5 -5 4 -9
1 -9 -4 0 -6 -9 -11 -21 -11 -13 0 -19 -5 -16 -13 3 -7 -3 -13 -14 -14 -10 -1
-39 -16 -64 -33 -25 -17 -45 -27 -45 -23 0 4 -6 1 -13 -8 -7 -9 -22 -19 -35
-23 -12 -4 -20 -11 -17 -16 3 -5 -4 -11 -15 -15 -11 -3 -20 -11 -20 -16 0 -6
-4 -8 -9 -4 -5 3 -16 -3 -23 -12 -7 -10 -20 -19 -28 -21 -8 -2 -26 -15 -39
-30 -13 -15 -20 -21 -16 -14 6 11 3 11 -14 0 -12 -7 -21 -16 -21 -20 0 -4 -7
-4 -17 -1 -11 4 -14 3 -9 -5 5 -8 1 -10 -10 -5 -14 5 -16 3 -11 -12 6 -15 5
-16 -7 -6 -12 10 -16 8 -21 -10 -6 -17 -9 -19 -16 -8 -7 11 -9 11 -9 1 0 -8
-5 -10 -12 -6 -7 5 -9 2 -5 -9 3 -9 -1 -21 -11 -29 -15 -11 -15 -11 -5 3 7 9
10 19 7 22 -9 9 -33 -16 -26 -27 3 -5 -2 -6 -12 -3 -10 4 -19 1 -22 -8 -4 -8
-10 -12 -15 -9 -5 3 -9 -3 -9 -13 0 -15 -2 -16 -10 -3 -6 9 -10 11 -10 3 0 -8
-7 -10 -18 -6 -15 6 -16 5 -2 -12 10 -12 10 -16 2 -11 -7 4 -20 2 -29 -6 -12
-9 -15 -9 -9 0 4 6 -9 3 -28 -9 -20 -12 -36 -25 -36 -31 0 -5 -5 -6 -10 -3 -5
3 -10 1 -10 -4 0 -6 -7 -11 -15 -11 -7 0 -19 -8 -24 -17 -6 -10 -11 -14 -11
-9 0 5 -9 -1 -19 -13 -11 -13 -25 -20 -30 -16 -6 3 -11 1 -11 -6 0 -7 -3 -10
-6 -6 -4 3 -27 -8 -52 -25 -25 -17 -42 -25 -37 -19 4 7 -5 5 -20 -5 -16 -10
-35 -19 -43 -20 -8 -2 -19 -9 -23 -16 -5 -7 -9 -9 -9 -5 0 5 -7 1 -16 -7 -8
-9 -20 -14 -25 -11 -5 4 -9 1 -9 -5 0 -6 -4 -9 -9 -6 -5 3 -11 -1 -15 -9 -3
-8 -11 -15 -18 -15 -9 0 -8 3 2 10 8 5 10 10 4 10 -13 0 -46 -35 -39 -42 3 -2
-2 -5 -10 -5 -8 0 -12 4 -9 9 3 4 -6 3 -20 -3 -14 -7 -23 -16 -19 -22 3 -5 0
-7 -8 -5 -8 3 -23 -2 -33 -11 -16 -13 -18 -13 -11 -1 8 13 7 13 -8 1 -9 -7
-17 -10 -17 -5 0 5 -5 1 -11 -9 -6 -9 -14 -15 -20 -12 -5 4 -9 1 -9 -6 0 -7
-3 -9 -7 -6 -3 4 -18 -3 -32 -15 -21 -19 -23 -20 -11 -3 14 19 14 19 -5 4 -11
-9 -30 -20 -42 -23 -13 -4 -23 -12 -23 -17 0 -6 -5 -7 -10 -4 -6 3 -10 1 -10
-5 0 -6 -4 -8 -10 -5 -5 3 -10 2 -10 -3 0 -5 -18 -15 -39 -22 -22 -7 -42 -19
-45 -27 -3 -8 -10 -12 -15 -8 -6 3 -14 -3 -20 -12 -6 -10 -11 -14 -11 -10 0 8
-13 -1 -51 -35 -10 -10 -22 -18 -26 -17 -4 0 -10 -8 -14 -18 -5 -12 -8 -13 -8
-3 -1 10 -6 7 -17 -8 -8 -12 -20 -19 -26 -16 -7 5 -9 1 -5 -9 4 -11 1 -15 -14
-12 -10 2 -19 -1 -19 -6 0 -6 -3 -9 -7 -7 -5 2 -25 -13 -46 -34 -22 -21 -34
-38 -27 -38 6 0 9 -4 6 -8 -3 -5 7 -24 22 -42 32 -39 112 -123 93 -97 -12 15
-12 17 3 11 15 -6 20 -18 17 -38 -1 -5 6 -3 15 5 16 12 17 12 11 -3 -3 -10 -1
-20 5 -24 7 -4 8 -3 4 4 -4 7 -2 12 3 12 6 0 11 -7 11 -16 0 -9 9 -18 20 -21
11 -3 17 -10 13 -16 -4 -6 4 -8 21 -5 22 4 24 3 14 -9 -9 -11 -8 -13 3 -11 8
2 13 -3 12 -9 -4 -16 9 -17 25 -1 9 9 12 8 12 -6 0 -13 6 -16 23 -12 12 3 16
3 10 0 -20 -9 -15 -23 7 -19 13 2 20 -2 20 -11 0 -8 4 -13 9 -9 5 3 12 1 16
-5 3 -5 15 -10 26 -10 12 0 17 -4 13 -11 -4 -8 0 -9 15 -4 15 4 21 3 19 -7 -2
-8 8 -14 25 -16 15 -2 25 -8 22 -13 -4 -5 1 -9 10 -9 10 0 13 5 9 12 -4 7 -3
8 4 4 6 -4 9 -13 5 -21 -6 -17 20 -17 47 0 12 7 13 6 3 -7 -16 -19 -5 -32 14
-16 11 9 12 7 7 -7 -5 -13 -4 -16 4 -11 7 4 12 2 12 -6 0 -9 3 -9 10 2 8 12
10 10 10 -9 0 -18 4 -22 18 -19 12 3 24 -2 31 -14 6 -10 16 -16 21 -13 6 3 10
1 10 -6 0 -7 3 -9 7 -6 3 4 13 -3 21 -14 12 -17 16 -18 23 -8 7 11 9 10 9 -3
0 -16 11 -23 33 -19 4 0 7 -6 7 -14 0 -9 6 -12 17 -8 11 4 14 3 9 -5 -10 -16
6 -15 23 0 11 11 13 10 8 -4 -8 -22 3 -31 20 -16 11 9 12 7 7 -7 -5 -13 -4
-16 4 -11 7 4 12 2 12 -3 0 -6 8 -11 18 -11 9 0 23 -9 30 -21 11 -17 16 -19
29 -7 12 9 15 10 9 1 -4 -8 -2 -13 4 -13 6 0 8 -5 4 -12 -4 -6 -3 -8 4 -4 6 3
14 1 18 -5 4 -8 9 -7 15 2 7 11 9 10 9 -5 0 -12 5 -16 15 -12 9 3 18 -1 22 -9
4 -12 8 -13 19 -4 12 10 13 8 8 -6 -5 -13 -4 -16 4 -11 7 4 12 2 12 -3 0 -6 7
-11 16 -11 9 0 12 -5 8 -12 -4 -6 -3 -8 4 -4 6 3 17 0 25 -8 8 -8 17 -12 21
-9 3 4 6 1 6 -6 0 -7 5 -11 12 -9 6 2 25 -9 42 -24 17 -15 36 -28 43 -28 7 0
13 -4 13 -10 0 -5 9 -10 19 -10 11 0 21 -4 23 -8 5 -12 77 -52 94 -52 8 0 14
-4 14 -8 0 -5 21 -20 48 -33 26 -13 53 -30 60 -36 18 -17 25 -16 18 3 -3 8 -2
12 4 9 6 -3 10 -12 10 -19 0 -7 16 -18 35 -26 19 -8 35 -18 35 -23 0 -5 7 -4
16 3 8 8 14 9 13 4 -1 -5 -1 -15 0 -23 1 -11 4 -11 18 0 9 8 14 9 10 3 -4 -7
13 -21 41 -35 26 -13 49 -27 50 -32 2 -4 8 -5 13 -1 5 3 9 1 9 -4 0 -5 13 -15
30 -22 16 -7 39 -21 51 -31 12 -10 26 -16 30 -13 5 3 9 0 9 -7 0 -7 3 -10 6
-6 4 3 15 -4 25 -16 10 -12 18 -18 19 -14 0 4 10 -1 22 -13 12 -11 28 -20 35
-20 7 0 13 -5 13 -12 0 -6 3 -9 6 -5 3 3 11 1 18 -4 50 -42 61 -49 71 -45 7 2
18 -4 25 -14 7 -10 19 -16 27 -13 7 3 13 1 13 -4 0 -4 9 -14 21 -21 17 -11 20
-11 14 0 -3 7 -1 6 7 -3 7 -9 19 -14 26 -12 6 3 12 -1 12 -7 0 -7 8 -10 20 -7
10 3 18 1 17 -4 -1 -5 16 -19 38 -32 22 -12 43 -26 46 -31 4 -4 9 -2 12 5 4
10 6 11 6 1 1 -12 48 -37 64 -34 4 1 7 -3 7 -8 0 -6 7 -10 15 -10 8 0 15 -5
15 -11 0 -5 4 -7 10 -4 6 3 10 1 10 -5 0 -7 7 -9 16 -6 8 3 12 2 9 -4 -3 -6
-1 -10 5 -10 6 0 18 -7 27 -15 8 -8 19 -13 24 -10 5 4 9 -1 9 -10 0 -9 5 -13
10 -10 6 3 13 0 16 -9 3 -8 11 -12 19 -10 7 3 22 -7 33 -21 12 -15 26 -24 32
-20 5 3 10 1 10 -4 0 -6 7 -11 15 -11 8 0 15 -4 15 -9 0 -5 13 -12 30 -16 17
-4 30 -13 30 -22 0 -8 6 -13 13 -10 6 2 18 -3 25 -12 10 -12 12 -13 6 -1 -7
13 -6 13 12 0 10 -8 25 -21 33 -28 7 -7 21 -10 29 -7 9 3 13 3 10 -1 -11 -11
21 -36 38 -30 10 4 13 2 8 -6 -5 -8 -2 -9 10 -5 11 5 15 3 10 -5 -5 -8 -2 -9
10 -5 10 4 15 3 11 -3 -7 -12 35 -31 49 -22 5 3 6 0 2 -6 -4 -7 -1 -12 9 -12
10 0 13 -5 9 -12 -5 -8 0 -7 11 2 11 9 16 10 11 2 -4 -7 -1 -15 8 -18 9 -3 13
-11 9 -17 -4 -6 -1 -7 7 -2 8 5 18 2 25 -8 6 -9 18 -17 26 -19 8 -2 21 -10 29
-18 8 -8 22 -16 30 -18 8 -2 23 -12 33 -23 10 -10 24 -19 32 -19 8 0 15 -7 15
-16 0 -14 3 -14 16 -4 8 8 14 9 13 4 -4 -22 3 -31 36 -44 19 -8 35 -17 35 -20
0 -4 18 -15 40 -25 22 -10 40 -23 40 -29 0 -6 5 -4 10 4 8 13 10 12 10 -3 0
-10 5 -15 10 -12 6 3 10 1 10 -5 0 -6 5 -8 11 -5 5 4 19 -1 29 -10 10 -9 24
-14 31 -9 8 4 10 3 5 -4 -5 -8 0 -12 14 -12 11 0 23 -7 26 -15 4 -8 10 -12 15
-10 5 3 20 -1 33 -10 14 -9 29 -14 34 -11 5 3 18 -6 28 -19 17 -22 19 -23 26
-7 6 15 7 15 7 0 1 -11 8 -16 21 -13 11 2 19 -1 17 -8 -1 -6 3 -11 10 -12 6 0
15 -3 19 -8 4 -4 16 -7 26 -7 11 0 17 -4 14 -9 -6 -8 12 -20 25 -17 4 0 16 -7
27 -17 12 -11 25 -16 30 -13 6 3 12 -1 16 -9 3 -8 12 -15 21 -15 8 0 15 -5 15
-11 0 -5 5 -7 10 -4 6 3 10 1 10 -5 0 -7 7 -9 16 -6 8 3 12 2 9 -4 -3 -6 3
-10 14 -10 12 0 21 -7 21 -16 0 -8 4 -13 9 -9 5 3 16 -1 24 -9 8 -8 17 -12 21
-9 3 4 6 1 6 -6 0 -7 5 -9 10 -6 6 3 10 1 10 -5 0 -6 5 -8 10 -5 6 3 10 1 10
-4 0 -6 7 -11 15 -11 8 0 24 -9 36 -21 11 -11 27 -18 35 -15 8 3 14 1 14 -5 0
-6 5 -7 10 -4 6 3 10 -2 10 -12 0 -15 2 -16 10 -3 8 13 10 12 10 -4 0 -11 3
-16 6 -13 7 7 64 -22 76 -38 5 -6 8 -6 8 -1 0 6 7 1 16 -10 8 -10 12 -13 9 -6
-6 11 -3 12 14 2 12 -6 25 -18 28 -26 3 -7 9 -11 14 -8 5 3 9 0 9 -5 0 -6 9
-11 21 -11 11 0 17 -4 14 -10 -6 -9 7 -14 21 -7 3 1 12 -9 21 -23 9 -16 12
-18 8 -6 -5 16 0 14 19 -7 14 -15 34 -27 46 -27 11 0 20 -4 20 -10 0 -5 7 -10
15 -10 8 0 15 -5 15 -11 0 -5 5 -7 10 -4 6 3 10 1 10 -5 0 -6 5 -8 10 -5 6 3
10 2 10 -3 0 -5 14 -15 30 -22 17 -7 30 -17 30 -22 0 -5 5 -6 10 -3 6 3 10 2
10 -3 0 -6 7 -13 16 -16 10 -4 13 -2 9 7 -4 6 0 5 7 -3 21 -24 82 -64 73 -49
-4 8 2 4 14 -9 12 -12 26 -20 32 -17 5 4 9 -2 9 -11 0 -10 3 -15 6 -11 3 3 15
-3 27 -13 12 -11 26 -19 30 -19 5 0 17 -9 26 -20 10 -12 23 -21 30 -21 6 0 11
-4 11 -10 0 -5 7 -10 15 -10 8 0 15 -5 15 -11 0 -5 5 -7 10 -4 6 3 10 1 10 -6
0 -7 3 -9 7 -6 3 4 13 -2 20 -13 8 -11 19 -18 24 -15 5 4 12 -1 15 -9 3 -9 12
-16 20 -16 8 0 14 -6 14 -12 0 -9 4 -8 10 2 8 13 10 13 10 -2 0 -17 37 -45 53
-40 4 1 7 -4 7 -10 0 -9 4 -8 10 2 8 12 10 11 10 -7 0 -16 4 -21 15 -17 8 4
15 1 15 -6 0 -7 7 -10 15 -6 9 3 15 0 15 -9 0 -14 12 -19 33 -16 4 0 7 -3 7
-9 0 -5 7 -10 15 -10 7 0 19 -8 24 -17 6 -10 11 -14 11 -10 0 4 10 2 23 -5 12
-7 24 -13 27 -14 3 0 12 -3 20 -7 8 -3 22 -6 30 -6 46 -3 66 -7 77 -14 6 -4
14 -4 17 1 3 4 40 9 83 11 119 4 133 5 133 15 0 4 7 6 15 2 8 -3 15 -2 15 2 0
4 8 8 18 9 15 1 49 8 62 13 3 1 10 3 15 4 6 1 17 5 25 8 37 15 56 21 63 22 4
1 12 8 17 16 8 12 10 12 10 1 0 -11 3 -11 15 -1 8 7 15 9 15 6 0 -4 7 0 16 8
8 9 22 16 30 16 8 0 14 5 14 11 0 5 4 8 9 5 5 -3 14 1 21 9 7 8 16 13 20 10 4
-3 13 2 20 10 7 8 17 12 23 8 6 -4 8 0 4 10 -4 11 -2 14 9 10 7 -3 14 0 14 7
0 6 5 8 11 4 6 -3 25 4 41 16 17 13 27 16 22 9 -4 -8 9 0 31 18 21 18 42 30
47 27 4 -3 11 2 14 10 3 9 12 16 20 16 8 0 14 5 14 10 0 6 6 10 14 10 8 0 22
8 32 18 10 9 22 17 28 17 6 1 10 6 9 13 -2 6 4 9 12 6 8 -4 15 -1 15 5 0 6 7
11 15 11 8 0 15 4 15 10 0 5 3 9 8 9 21 -4 32 3 32 19 0 14 2 15 10 2 8 -12
10 -12 16 3 3 9 10 15 14 12 5 -3 15 1 23 9 8 8 17 12 21 9 3 -3 8 1 12 10 3
9 12 13 20 10 8 -3 14 0 14 6 0 6 7 11 15 11 7 0 19 8 24 18 6 9 11 13 11 8 0
-5 7 -3 15 4 8 7 15 9 15 4 0 -4 7 1 16 12 8 10 13 12 9 4 -4 -10 -2 -9 8 2 8
10 17 15 20 11 4 -3 7 -1 7 5 0 7 6 12 14 12 7 0 21 10 30 22 9 13 14 17 11
11 -3 -7 -1 -13 4 -13 6 0 11 5 11 12 0 6 3 9 6 5 4 -3 12 -1 20 6 34 30 42
35 49 29 3 -4 11 1 16 11 6 9 14 15 20 12 5 -4 12 1 15 9 3 9 14 16 25 16 10
0 23 9 29 20 6 11 15 18 20 15 12 -7 44 11 95 53 12 10 15 10 15 0 1 -8 7 -5
16 7 8 11 20 19 25 18 5 -2 9 2 9 8 0 5 5 7 10 4 6 -3 10 -1 10 5 0 6 5 8 10
5 6 -3 10 -1 10 4 0 6 6 11 14 11 8 0 21 6 28 13 7 6 20 13 27 15 8 2 33 16
57 32 23 17 48 30 54 30 6 0 13 7 16 15 4 8 10 13 14 10 4 -3 13 2 20 10 7 8
17 12 23 8 5 -3 7 -2 4 4 -3 5 10 19 31 30 20 11 36 25 35 31 -2 6 6 9 17 7
12 -2 20 2 20 10 0 9 6 12 17 8 10 -4 14 -2 10 4 -4 6 4 14 18 17 14 4 23 11
20 16 -3 6 1 7 9 4 10 -4 16 -1 16 10 0 9 6 13 14 10 8 -3 23 3 33 13 10 10
23 18 28 18 14 0 229 109 233 118 2 4 7 5 12 2 5 -3 15 1 22 9 8 7 24 17 36
20 12 4 22 12 22 17 0 6 4 8 10 4 5 -3 18 3 28 13 10 10 24 16 30 14 7 -2 12
1 12 7 0 6 7 11 15 11 8 0 15 5 15 10 0 6 7 10 14 10 8 0 27 11 42 25 15 14
31 25 37 25 5 0 16 8 24 18 8 9 11 11 7 3 -4 -7 8 -3 27 10 19 13 36 27 37 32
2 4 12 7 22 7 9 0 23 7 30 15 6 8 21 17 32 21 11 3 39 19 63 35 24 16 46 29
50 29 4 0 20 9 36 21 16 11 29 17 29 12 0 -4 5 0 11 9 5 10 16 18 24 18 7 0
20 6 27 13 7 6 31 21 53 32 22 11 46 26 54 33 7 7 29 22 50 33 20 11 50 28 66
39 17 11 38 23 48 26 9 4 17 11 17 17 0 6 3 8 6 4 4 -3 21 4 38 17 17 13 41
27 54 31 12 3 22 11 22 16 0 6 5 7 10 4 6 -3 10 -2 10 3 0 5 29 24 65 43 36
18 65 37 65 42 0 4 4 6 8 3 5 -3 18 4 30 14 12 11 23 20 26 20 9 0 101 64 104
73 2 4 7 5 12 2 4 -2 15 4 25 15 10 11 27 20 37 20 10 0 21 6 24 14 3 8 16 17
30 20 13 4 24 11 24 16 0 6 9 10 20 10 10 0 24 8 29 18 6 9 11 13 11 9 0 -5
24 5 53 21 28 16 79 44 112 62 33 18 66 37 73 43 6 5 12 6 12 1 0 -4 7 1 15
12 8 10 15 15 15 10 0 -5 9 -1 20 9 11 10 20 15 20 11 0 -4 17 5 37 19 21 14
43 25 49 25 6 0 24 11 40 25 16 14 33 25 38 25 5 0 23 10 40 23 17 12 57 38
89 57 31 19 57 37 57 40 0 4 6 7 13 7 22 1 86 40 79 48 -4 5 1 5 10 2 10 -3
21 -1 25 6 7 11 25 21 118 71 11 6 22 14 25 17 3 3 41 25 85 49 44 24 88 50
98 58 9 8 17 11 17 6 0 -5 4 -4 8 2 4 6 35 26 70 45 34 18 62 37 62 41 0 5 6
8 14 8 8 0 21 6 28 13 15 14 48 33 93 56 17 8 32 17 35 20 3 3 29 17 57 31 29
14 53 28 53 33 0 4 4 7 9 7 5 0 52 27 104 60 53 33 101 60 107 60 6 0 8 5 5
10 -3 6 -2 10 4 10 18 0 71 52 64 63 -3 7 -3 9 2 5 12 -11 35 11 35 34 0 10 4
17 9 14 5 -4 7 3 4 14 -3 11 -9 17 -14 14 -5 -3 -6 2 -3 10 3 9 2 16 -2 16 -5
0 -24 12 -41 28 -18 15 -65 42 -105 59 -40 18 -100 45 -133 60 -33 14 -63 26
-67 25 -5 -1 -8 3 -8 10 0 6 -3 8 -7 5 -3 -4 -21 4 -39 18 -18 14 -39 25 -46
25 -7 0 -28 9 -45 20 -18 11 -33 17 -33 14 0 -4 -7 -1 -15 6 -8 7 -15 10 -15
7 0 -3 -16 1 -35 9 -19 8 -35 12 -35 9 0 -2 -11 0 -25 5 -18 7 -25 6 -25 -3 0
-8 -3 -9 -8 -1 -8 11 -130 11 -172 -1 -14 -3 -31 -7 -38 -7 -7 -1 -10 -8 -7
-16 4 -12 3 -12 -9 -3 -11 9 -15 8 -20 -4 -3 -8 -9 -14 -13 -13 -4 1 -18 -3
-30 -10 -13 -7 -23 -9 -23 -5 0 4 -4 3 -8 -3 -4 -6 -35 -26 -69 -44 -35 -19
-63 -38 -63 -43 0 -4 -4 -5 -10 -2 -5 3 -10 1 -10 -4 0 -6 -3 -11 -7 -10 -5 1
-18 -2 -31 -6 -16 -5 -21 -13 -17 -24 5 -12 3 -13 -6 -4 -8 8 -18 9 -35 1 -13
-6 -24 -14 -24 -18 0 -5 -8 -7 -17 -6 -11 0 -17 -5 -15 -13 3 -12 0 -12 -12
-1 -12 9 -16 9 -16 1 0 -7 -4 -9 -10 -6 -5 3 -10 1 -10 -6 0 -7 -3 -9 -6 -6
-4 3 -16 1 -28 -5 -11 -7 -24 -11 -28 -10 -5 1 -8 -3 -8 -10 0 -6 -3 -9 -6 -6
-7 8 -84 -28 -141 -65 -24 -15 -47 -27 -53 -27 -6 0 -8 -4 -5 -10 3 -5 -1 -10
-10 -10 -20 0 -64 -27 -88 -54 -10 -12 -15 -14 -11 -7 4 9 -6 5 -24 -8 -18
-12 -32 -27 -32 -32 0 -6 -4 -8 -8 -5 -5 3 -15 -4 -22 -15 -8 -10 -21 -19 -28
-19 -8 0 -12 -6 -8 -15 3 -9 0 -15 -9 -15 -8 0 -15 -4 -15 -10 0 -5 -6 -10
-13 -10 -7 0 -19 -9 -27 -20 -8 -11 -20 -20 -27 -20 -6 0 -15 -9 -18 -20 -4
-11 -10 -18 -15 -15 -5 3 -15 -1 -23 -9 -8 -8 -17 -12 -21 -9 -3 3 -10 -6 -15
-21 -6 -14 -13 -26 -16 -26 -4 0 -3 4 0 10 10 17 -7 11 -22 -7 -8 -10 -11 -12
-7 -4 5 9 -2 7 -18 -5 -14 -10 -23 -23 -20 -29 3 -5 -2 -4 -11 4 -12 9 -17 10
-17 2 0 -7 -4 -10 -9 -7 -5 4 -11 3 -13 -1 -1 -5 -29 -21 -60 -37 -31 -16 -55
-33 -52 -38 3 -4 -2 -5 -10 -2 -9 3 -16 1 -16 -5 0 -6 -7 -11 -15 -11 -8 0
-15 -5 -15 -11 0 -5 -4 -7 -10 -4 -5 3 -10 1 -10 -6 0 -7 -3 -9 -7 -6 -3 4
-12 -1 -20 -11 -8 -9 -11 -11 -8 -4 6 11 3 11 -14 0 -12 -7 -21 -16 -21 -20 0
-4 -7 -5 -15 -2 -8 4 -15 2 -15 -4 0 -5 -9 -12 -21 -15 -12 -3 -19 -10 -15
-15 3 -5 -1 -9 -9 -10 -8 -1 -22 -3 -30 -4 -9 -1 -14 -6 -12 -13 3 -6 -3 -12
-13 -12 -23 -2 -70 -32 -70 -45 0 -5 -5 -6 -12 -2 -6 4 -16 0 -22 -8 -6 -8
-14 -16 -18 -17 -18 -4 -68 -37 -68 -44 0 -5 -4 -6 -9 -3 -5 3 -14 -1 -21 -9
-7 -8 -16 -15 -21 -15 -5 0 -18 -8 -28 -17 -38 -35 -51 -44 -51 -36 0 4 -6 1
-13 -7 -18 -22 -56 -42 -67 -35 -6 4 -10 1 -10 -5 0 -6 -4 -9 -9 -6 -5 3 -20
-5 -33 -17 -14 -13 -30 -21 -36 -19 -7 2 -12 -1 -12 -8 0 -6 -4 -9 -9 -6 -5 3
-12 -1 -15 -10 -3 -8 -10 -13 -15 -10 -5 4 -16 0 -24 -8 -8 -8 -17 -12 -21 -9
-3 4 -6 1 -6 -6 0 -7 -4 -9 -10 -6 -5 3 -10 1 -10 -4 0 -6 -3 -10 -7 -9 -15 3
-83 -32 -83 -43 0 -5 -4 -8 -9 -5 -10 7 -61 -16 -61 -27 0 -5 -4 -5 -10 -2 -5
3 -10 1 -10 -4 0 -6 -3 -10 -7 -9 -15 3 -63 -22 -63 -32 0 -6 -4 -9 -9 -5 -5
3 -17 -2 -25 -11 -9 -8 -16 -13 -16 -10 0 3 -9 -2 -20 -12 -12 -9 -23 -15 -27
-14 -3 2 -9 0 -12 -5 -3 -5 -33 -26 -66 -48 -33 -21 -63 -43 -67 -49 -4 -6 -8
-7 -8 -3 0 5 -7 1 -16 -7 -8 -9 -22 -16 -30 -16 -8 0 -14 -4 -14 -9 0 -5 -10
-13 -22 -17 -13 -4 -26 -12 -30 -18 -4 -6 -12 -12 -18 -12 -5 -1 -15 -2 -21
-3 -5 0 -7 -7 -3 -13 4 -7 4 -10 -1 -6 -4 4 -15 2 -23 -5 -13 -9 -14 -9 -8 1
4 6 2 12 -3 12 -11 0 -15 -15 -12 -34 1 -5 -4 -4 -13 3 -11 9 -16 9 -22 0 -5
-8 -3 -9 6 -4 9 5 11 4 6 -4 -4 -6 -11 -9 -16 -6 -14 9 -71 -17 -66 -30 3 -8
-4 -11 -20 -9 -13 1 -24 -1 -24 -5 0 -7 -56 -40 -127 -75 -13 -6 -23 -14 -23
-18 0 -5 -6 -8 -13 -8 -7 0 -19 -9 -27 -19 -7 -11 -17 -18 -21 -16 -4 3 -20
-8 -37 -23 -16 -15 -35 -26 -41 -24 -6 2 -14 -3 -17 -12 -3 -9 -10 -13 -15
-10 -5 3 -9 0 -9 -6 0 -6 -4 -9 -9 -5 -5 3 -16 -2 -25 -10 -8 -9 -18 -14 -20
-13 -3 2 -16 -6 -28 -17 -13 -10 -24 -19 -25 -18 -7 3 -43 -10 -43 -16 0 -4
-22 -18 -50 -32 -27 -13 -50 -27 -50 -31 0 -5 -6 -8 -14 -8 -7 0 -26 -10 -42
-22 -16 -13 -25 -16 -20 -8 4 8 -2 4 -14 -10 -12 -14 -19 -18 -15 -10 4 8 -1
6 -9 -4 -9 -11 -16 -16 -16 -11 0 4 -8 2 -17 -6 -10 -8 -30 -21 -45 -28 -15
-8 -25 -18 -22 -23 3 -5 2 -8 -3 -7 -25 4 -43 -3 -44 -18 0 -10 -3 -13 -5 -6
-4 9 -11 9 -29 1 -14 -6 -22 -14 -20 -19 3 -4 -3 -6 -12 -4 -10 1 -28 -4 -40
-11 -13 -8 -23 -12 -23 -9 0 3 -10 0 -22 -7 -13 -7 -26 -11 -30 -10 -5 1 -8
-3 -8 -8 0 -5 -3 -9 -7 -8 -14 4 -83 -26 -83 -36 0 -5 -3 -6 -6 -3 -10 9 -46
-12 -39 -23 3 -6 -1 -7 -10 -4 -8 4 -21 1 -29 -5 -7 -6 -16 -8 -19 -4 -4 3 -7
1 -7 -6 0 -7 -4 -9 -10 -6 -5 3 -10 2 -10 -3 0 -6 -8 -9 -17 -8 -10 0 -17 -4
-16 -10 1 -6 -9 -10 -22 -8 -14 1 -25 -2 -25 -7 0 -5 -3 -8 -7 -8 -20 3 -34
-2 -28 -10 3 -6 -4 -8 -16 -6 -16 3 -19 1 -14 -13 5 -13 3 -14 -5 -6 -13 13
-70 -3 -70 -19 0 -4 -4 -6 -9 -3 -5 3 -11 -1 -15 -9 -3 -8 -12 -12 -21 -9 -8
4 -17 0 -21 -9 -3 -9 -12 -13 -21 -10 -11 4 -14 2 -9 -5 5 -8 2 -10 -8 -6 -9
3 -16 1 -16 -5 0 -6 -7 -8 -17 -4 -13 5 -15 2 -10 -12 6 -15 5 -16 -7 -6 -10
8 -15 9 -18 1 -2 -6 -13 -12 -25 -13 -12 0 -19 -5 -17 -9 3 -4 -2 -8 -10 -8
-9 0 -16 -5 -16 -11 0 -5 -4 -7 -10 -4 -5 3 -10 1 -10 -5 0 -6 -4 -8 -10 -5
-5 3 -10 2 -10 -3 0 -4 -16 -14 -35 -22 -19 -7 -37 -20 -40 -27 -2 -8 -9 -11
-15 -8 -5 3 -10 -1 -10 -10 0 -10 5 -13 12 -9 7 5 8 3 3 -5 -5 -9 -10 -10 -18
-2 -7 7 -15 7 -26 -2 -12 -10 -13 -9 -7 3 6 11 4 11 -6 -1 -13 -16 -19 -19
-39 -19 -5 0 -8 -3 -5 -8 2 -4 -28 -6 -67 -5 -93 4 -97 5 -97 15 0 5 -5 6 -10
3 -6 -4 -26 3 -45 15 -20 12 -42 19 -50 16 -9 -3 -12 0 -9 8 3 8 0 17 -7 22
-8 5 -10 3 -5 -7 4 -8 -2 -4 -13 9 -11 13 -25 21 -31 17 -5 -3 -10 0 -10 7 0
15 -106 71 -120 63 -4 -3 -11 2 -14 11 -3 8 -10 12 -16 9 -5 -3 -10 -1 -10 5
0 7 -7 9 -16 6 -8 -3 -12 -2 -9 4 3 6 1 11 -4 11 -6 1 -15 3 -21 4 -5 1 -15 3
-21 4 -5 0 -7 6 -3 13 4 6 3 8 -4 4 -6 -3 -13 -2 -17 3 -3 5 -14 8 -25 6 -12
-2 -18 0 -15 6 4 5 1 9 -4 9 -20 0 -26 3 -39 19 -11 13 -12 13 -7 1 6 -13 5
-13 -7 0 -7 8 -22 17 -33 18 -11 2 -23 9 -27 15 -4 7 -8 8 -8 3 0 -5 -6 -3
-13 3 -8 6 -17 8 -20 4 -4 -3 -7 -1 -7 5 0 7 -9 12 -20 12 -11 0 -20 5 -20 11
0 5 -4 7 -10 4 -5 -3 -10 -1 -10 4 0 6 -5 11 -10 11 -6 0 -50 18 -98 41 -114
53 -135 63 -144 61 -5 -1 -8 2 -8 7 0 5 -10 13 -22 17 -13 3 -35 15 -50 26
-16 11 -32 16 -38 13 -5 -3 -10 1 -10 9 0 9 -7 16 -15 16 -8 0 -15 4 -15 8 0
11 -61 55 -76 55 -7 0 -11 4 -8 9 3 4 1 8 -4 8 -5 0 -21 12 -36 26 -14 15 -26
24 -26 20 0 -4 -12 5 -27 19 -15 14 -33 25 -40 25 -7 0 -13 5 -13 11 0 5 -4 7
-10 4 -5 -3 -10 1 -10 10 0 9 -4 14 -8 11 -5 -3 -33 17 -63 44 -30 27 -60 49
-67 50 -7 0 -10 5 -6 12 5 8 0 9 -14 6 -13 -4 -20 -2 -16 3 7 11 -65 78 -84
79 -7 0 -11 4 -8 9 4 5 -7 15 -24 23 -16 7 -30 16 -30 20 0 5 -7 8 -15 8 -8 0
-15 5 -15 11 0 6 -6 9 -14 6 -8 -3 -17 1 -20 8 -3 9 -12 12 -22 8 -12 -4 -15
-3 -10 5 4 7 -3 14 -19 18 -14 3 -25 10 -25 14 0 4 -7 11 -16 14 -8 3 -13 2
-10 -3 7 -10 -106 47 -162 82 -23 15 -48 25 -55 21 -7 -4 -9 -4 -5 1 7 7 -7
18 -74 60 -86 53 -112 67 -122 70 -6 1 -29 10 -51 20 -22 9 -47 19 -55 20 -8
2 -16 4 -17 5 -3 3 -3 3 -48 15 -16 4 -36 12 -42 18 -7 5 -13 7 -13 4 0 -3
-25 3 -57 14 -31 10 -64 19 -74 19 -9 0 -19 4 -21 8 -4 11 -108 62 -125 62 -7
0 -13 4 -13 9 0 5 -10 13 -22 16 -13 4 -37 18 -54 31 -17 13 -34 20 -38 17 -3
-4 -6 0 -6 7 0 7 -3 11 -6 8 -3 -3 -15 3 -27 13 -12 11 -36 32 -53 47 -18 15
-48 42 -68 59 -19 18 -40 33 -46 33 -6 0 -9 4 -6 8 3 5 -6 15 -19 22 -14 7
-25 17 -25 22 0 4 -7 8 -15 8 -8 0 -15 4 -15 9 0 13 -100 86 -113 83 -7 -2 -9
0 -5 4 8 7 -53 54 -71 54 -5 0 -15 8 -20 18 -6 9 -11 14 -11 10 0 -4 -28 9
-61 28 -34 19 -69 36 -78 38 -9 2 -29 8 -46 15 -16 7 -30 11 -30 10 0 -1 -11
4 -25 11 -14 8 -27 15 -30 15 -3 0 -39 14 -80 30 -41 16 -78 28 -82 27 -5 -1
-8 2 -8 6 0 5 -18 17 -40 27 -22 10 -37 22 -33 28 4 6 0 8 -10 4 -9 -3 -17 -3
-19 1 -3 8 -105 82 -113 82 -3 0 -13 8 -23 17 -41 40 -77 68 -84 65 -5 -1 -8
3 -8 9 0 5 -4 7 -10 4 -5 -3 -7 0 -4 9 3 9 -2 17 -14 20 -29 9 -63 96 -39 96
7 0 3 8 -8 16 l-20 16 20 -4 c14 -2 21 3 23 20 2 12 8 20 13 17 5 -4 9 -3 9 2
0 8 46 65 52 64 11 -1 48 13 48 18 0 6 86 54 100 56 3 0 21 8 40 17 19 9 47
19 62 22 15 3 40 11 55 18 15 6 33 12 38 14 6 2 47 16 92 32 46 16 85 27 88
24 3 -3 5 0 5 5 0 6 8 10 18 8 9 -1 22 0 27 3 15 9 169 8 175 0 3 -4 20 -8 38
-10 18 -1 32 -6 32 -10 0 -4 3 -7 8 -7 25 4 42 -2 36 -13 -6 -10 -4 -10 8 0
13 10 17 10 22 -3 3 -9 10 -13 16 -10 5 3 10 1 10 -5 0 -6 4 -9 9 -5 5 3 16
-1 24 -9 11 -12 17 -12 28 -3 8 7 11 8 7 3 -10 -12 20 -39 33 -30 8 5 9 3 4
-6 -6 -10 -4 -12 9 -7 9 4 15 3 12 -1 -4 -7 48 -45 64 -47 3 0 4 -3 3 -7 -2
-5 6 -8 17 -8 11 0 20 -4 20 -9 0 -5 10 -7 23 -4 13 3 17 1 11 -4 -9 -6 -8
-11 2 -21 10 -9 14 -10 14 -1 0 7 9 2 20 -11 11 -13 20 -27 20 -32 0 -5 4 -7
9 -3 6 3 20 -5 32 -17 12 -13 19 -16 15 -8 -5 10 -3 9 7 -2 11 -14 16 -15 26
-5 10 9 11 8 5 -7 -6 -15 -4 -18 9 -13 10 4 18 0 22 -12 3 -11 15 -21 25 -24
11 -3 18 -2 15 2 -2 4 2 8 10 8 8 0 12 -3 10 -7 -3 -4 5 -16 17 -26 15 -13 19
-14 14 -4 -6 12 -5 12 6 -1 7 -9 18 -14 25 -12 6 2 17 -6 23 -17 8 -16 19 -21
35 -18 16 4 22 1 18 -9 -3 -8 2 -13 16 -13 12 0 24 -6 27 -14 3 -8 13 -13 22
-12 9 2 25 -5 36 -16 11 -10 28 -18 38 -18 10 0 18 -4 18 -10 0 -5 6 -7 14 -4
7 3 16 -2 19 -10 4 -9 13 -16 22 -16 8 0 15 -4 15 -9 0 -5 9 -13 20 -16 12 -4
30 -16 42 -28 11 -12 17 -15 13 -7 -5 8 6 1 24 -17 18 -17 39 -29 46 -27 7 3
15 -2 19 -11 3 -9 10 -13 16 -10 5 3 10 1 10 -6 0 -7 3 -9 7 -6 3 4 13 -2 20
-13 8 -11 18 -18 23 -15 4 3 13 -2 20 -10 7 -8 16 -12 21 -9 5 3 19 -5 30 -18
11 -13 18 -17 14 -10 -10 20 9 14 23 -8 7 -11 21 -20 32 -20 11 0 20 -5 20
-11 0 -8 6 -7 17 2 9 8 14 9 11 4 -4 -6 -3 -17 3 -25 7 -13 9 -13 9 0 0 12 2
12 9 2 4 -7 17 -14 29 -15 11 0 20 -4 19 -7 -1 -3 1 -5 4 -5 3 0 14 -8 24 -18
9 -10 24 -16 32 -13 8 3 12 2 9 -3 -8 -13 21 -34 38 -28 10 4 13 1 9 -9 -3 -9
2 -14 16 -14 12 0 21 -4 21 -8 0 -10 60 -45 60 -35 0 4 4 4 8 -2 11 -15 70
-55 82 -55 5 0 10 -4 10 -10 0 -5 6 -7 14 -4 9 3 20 -3 28 -15 7 -12 21 -21
30 -21 10 0 18 -5 18 -11 0 -5 5 -7 10 -4 6 3 10 2 10 -2 0 -5 9 -14 21 -21
12 -8 18 -9 15 -4 -3 6 5 5 19 -1 14 -7 25 -15 25 -19 0 -5 9 -8 20 -8 11 0
20 -4 20 -9 0 -5 14 -14 30 -20 17 -5 30 -14 30 -20 0 -5 9 -8 19 -6 15 3 18
-1 14 -12 -4 -11 -2 -14 5 -9 7 4 12 2 12 -4 0 -7 7 -9 16 -6 8 3 13 2 10 -3
-3 -5 4 -11 15 -14 13 -4 18 -10 14 -17 -5 -9 -1 -10 15 -5 15 5 20 4 16 -4
-4 -6 0 -11 8 -11 9 0 16 -5 16 -11 0 -5 5 -7 10 -4 6 3 10 1 10 -5 0 -6 5 -8
10 -5 6 3 10 1 10 -6 0 -7 3 -10 6 -6 4 3 13 -1 21 -9 8 -8 19 -12 24 -9 5 4
9 -1 9 -10 0 -11 6 -15 19 -10 12 3 21 0 25 -10 3 -8 12 -15 21 -15 8 0 15 -5
15 -11 0 -5 5 -7 10 -4 6 3 10 1 10 -5 0 -6 5 -8 10 -5 6 3 10 1 10 -4 0 -6 9
-11 20 -11 11 0 20 -6 20 -12 0 -9 4 -8 10 2 8 13 10 13 10 -1 0 -9 7 -20 16
-23 10 -4 13 -2 9 7 -4 6 0 4 8 -6 9 -10 18 -18 21 -18 20 3 26 0 21 -9 -4 -6
-3 -10 2 -9 15 4 48 -14 66 -35 10 -12 16 -15 12 -8 -6 11 -3 11 14 0 12 -7
21 -16 21 -20 0 -5 7 -8 15 -8 8 0 15 -4 15 -10 0 -5 6 -10 13 -10 8 0 22 -9
32 -20 10 -11 21 -17 25 -15 4 2 15 -4 25 -15 10 -11 23 -17 29 -13 6 3 8 3 4
-1 -8 -9 34 -55 45 -49 4 2 7 -2 7 -10 0 -7 11 -23 24 -34 18 -16 27 -18 36
-10 8 9 9 7 4 -8 -4 -11 -4 -17 1 -13 4 4 14 0 22 -10 9 -10 11 -11 7 -2 -7
13 -5 13 9 1 9 -7 14 -18 10 -24 -3 -6 -1 -7 5 -3 7 4 12 2 12 -3 0 -6 12 -11
28 -11 19 0 23 -3 14 -9 -10 -6 -7 -10 12 -15 15 -4 24 -11 21 -16 -4 -6 1 -7
11 -3 11 4 15 2 11 -4 -4 -6 0 -14 9 -17 10 -4 13 -2 8 7 -6 9 -5 9 8 0 8 -7
19 -9 24 -5 4 4 3 -1 -4 -10 -12 -14 -10 -16 10 -11 19 4 20 3 8 -7 -12 -10
-11 -11 8 -7 12 3 22 1 22 -4 0 -5 3 -9 8 -8 15 2 52 -14 52 -23 0 -5 4 -6 10
-3 5 3 15 -3 22 -15 16 -24 30 -27 21 -3 -6 15 -5 16 9 3 9 -8 14 -18 11 -22
-2 -5 3 -8 11 -8 9 0 16 -4 16 -8 0 -5 6 -9 13 -9 6 0 20 -4 30 -8 10 -4 17
-3 17 4 0 6 7 8 17 4 10 -4 14 -2 9 5 -3 6 -1 14 5 18 7 4 9 3 5 -4 -3 -6 -2
-13 4 -17 6 -3 13 0 16 9 3 8 14 13 26 11 14 -3 18 0 14 10 -6 16 10 30 18 16
4 -5 25 2 47 17 23 15 45 27 50 27 6 0 13 5 17 10 4 6 12 11 18 12 6 1 39 18
72 38 33 19 65 35 70 35 6 0 12 3 14 8 4 9 86 63 94 61 3 0 19 12 35 27 16 15
29 24 29 18 0 -5 7 0 16 11 8 11 18 21 22 21 25 5 52 17 52 24 0 4 14 13 30
20 17 7 30 17 30 22 0 5 4 7 9 3 5 -3 13 0 16 5 4 6 17 15 28 21 12 5 45 22
72 39 28 16 66 37 85 47 19 9 38 22 42 27 4 6 8 8 8 4 0 -4 19 3 43 17 23 13
71 38 107 56 36 17 67 36 68 41 2 4 8 6 13 2 5 -3 9 0 9 5 0 6 3 10 8 9 12 -4
142 63 142 74 0 5 5 6 10 3 6 -3 10 -1 10 4 0 6 7 11 15 11 8 0 15 8 16 18 0
9 3 12 5 5 5 -11 20 -3 58 33 7 6 22 15 34 18 12 4 22 12 22 17 0 5 7 9 15 9
8 0 15 5 15 10 0 6 7 10 15 10 9 0 18 7 21 15 4 8 10 12 15 9 5 -3 9 0 9 5 0
6 7 11 15 11 8 0 15 8 15 18 0 14 2 15 10 2 6 -10 10 -11 10 -2 0 6 7 12 15
12 8 0 15 5 15 11 0 5 5 7 10 4 6 -3 10 -1 10 4 0 6 6 11 13 11 7 0 36 15 65
34 28 19 52 33 52 30 0 -7 74 49 78 59 2 4 10 7 18 7 8 0 14 3 14 8 0 4 18 18
40 32 22 14 40 28 40 33 0 4 5 5 10 2 6 -3 10 -2 10 2 0 5 30 24 68 43 37 19
70 40 74 45 4 6 8 6 8 1 0 -5 8 -2 18 7 10 10 22 14 25 11 4 -4 9 1 13 10 3 9
10 14 14 11 4 -2 33 13 64 35 31 22 56 37 56 34 0 -5 17 8 51 39 10 9 19 14
19 11 0 -3 14 4 30 16 17 12 30 18 30 13 0 -4 5 0 11 10 6 9 14 15 20 12 5 -4
9 -3 9 2 0 9 91 49 103 45 4 -1 7 2 7 7 0 5 30 21 68 36 143 57 190 79 257
121 28 17 86 50 130 74 189 103 235 131 235 143 0 6 3 8 6 4 6 -6 123 68 135
86 3 5 8 7 10 6 2 -2 24 9 49 23 25 15 57 32 73 39 15 7 27 16 27 21 0 5 4 7
8 4 5 -3 19 4 30 15 12 11 22 17 22 14 0 -5 49 29 87 60 33 27 67 51 118 82
20 12 146 75 155 78 29 7 80 31 80 37 0 4 7 8 15 8 9 0 18 7 21 15 4 8 10 12
15 9 5 -3 9 2 9 10 0 9 5 16 11 16 6 0 9 9 6 20 -3 11 -1 18 4 14 5 -3 9 4 9
15 0 12 -5 21 -10 21 -6 0 -10 6 -9 13 1 6 -4 26 -11 42 -7 17 -13 33 -12 37
2 10 -105 97 -121 97 -4 1 -21 17 -38 36 -17 19 -35 35 -40 35 -6 0 -22 11
-37 25 -15 14 -33 23 -39 20 -7 -2 -12 0 -10 6 1 6 -7 16 -18 22 -11 7 -22 14
-25 17 -13 14 -60 40 -60 33 0 -4 -7 3 -16 15 -8 12 -20 20 -25 17 -5 -4 -9
-2 -9 3 0 6 -11 13 -25 16 -14 4 -25 11 -25 16 0 11 -96 60 -104 53 -3 -4 -6
-2 -6 4 0 6 -13 16 -30 23 -16 7 -30 16 -30 21 0 5 -7 9 -15 9 -8 0 -15 5 -15
10 0 6 -7 10 -15 10 -8 0 -15 5 -15 11 0 5 -4 7 -10 4 -5 -3 -10 -1 -10 5 0 7
-6 10 -13 7 -8 -3 -20 3 -27 13 -7 10 -19 16 -27 13 -7 -3 -13 -1 -13 5 0 5
-15 15 -32 23 -18 7 -35 15 -38 18 -13 15 -68 40 -74 34 -3 -3 -6 -1 -6 5 0 7
-6 12 -14 12 -8 0 -16 7 -20 15 -3 8 -11 12 -19 9 -8 -3 -20 2 -27 11 -7 8
-18 15 -26 15 -7 0 -18 8 -23 18 -6 9 -11 13 -11 7 0 -5 -5 -3 -10 5 -8 13
-10 13 -10 0 0 -10 -5 -7 -16 8 -8 12 -20 20 -25 17 -5 -4 -9 -1 -9 6 0 7 -3
9 -7 6 -3 -4 -13 2 -21 14 -11 16 -17 18 -28 8 -12 -10 -13 -9 -8 6 5 12 4 16
-4 11 -6 -3 -20 3 -31 15 -11 12 -24 18 -32 14 -7 -5 -10 -4 -5 3 6 10 -30 28
-46 24 -5 -1 -8 3 -8 9 0 6 -7 8 -16 5 -8 -3 -12 -2 -9 4 3 6 -1 10 -9 10 -9
0 -16 5 -16 12 0 6 -3 8 -7 5 -3 -4 -12 -2 -20 4 -7 6 -13 9 -13 5 0 -3 -18 4
-40 15 -22 12 -47 18 -56 15 -8 -3 -13 -2 -10 3 3 4 -7 14 -22 22 -15 7 -31
15 -36 18 -5 2 -6 -2 -2 -10 4 -8 2 -7 -6 2 -7 9 -39 28 -71 43 -31 15 -57 32
-57 37 0 6 -4 8 -9 5 -5 -3 -19 3 -32 13 -37 29 -86 51 -94 43 -5 -4 -5 -2 -2
4 3 6 -5 17 -18 24 -14 7 -25 17 -25 22 0 4 -7 8 -16 8 -8 0 -22 7 -31 15 -8
8 -19 13 -24 10 -5 -4 -9 -2 -9 2 0 5 -10 14 -21 22 -18 11 -23 11 -31 -1 -8
-10 -9 -10 -5 3 3 10 -6 22 -29 34 -19 10 -34 22 -34 28 0 5 -7 4 -16 -3 -8
-8 -14 -9 -13 -4 3 20 -1 35 -10 30 -14 -9 -42 5 -34 18 3 6 3 8 -1 4 -5 -4
-26 4 -47 18 -21 13 -43 24 -48 24 -5 0 -11 5 -13 11 -2 7 -18 12 -35 13 -22
1 -29 4 -22 13 7 7 6 14 -1 18 -5 3 -10 3 -10 -2 0 -4 -4 -3 -8 4 -4 6 -14 13
-22 15 -8 2 -23 14 -33 28 l-19 25 7 -25 6 -25 -14 23 c-7 12 -17 19 -21 15
-4 -4 -6 -1 -4 7 2 9 -4 14 -14 14 -10 -1 -15 2 -12 7 3 5 -3 12 -13 16 -10 4
-23 13 -29 21 -7 9 -16 12 -24 7 -9 -5 -11 -4 -6 3 4 7 1 12 -9 12 -9 0 -13 5
-10 10 3 6 -1 10 -9 10 -9 0 -16 5 -16 11 0 8 -5 7 -16 -1 -13 -11 -16 -10
-21 8 -3 12 -13 22 -23 22 -10 0 -21 7 -24 16 -4 9 -9 14 -13 11 -3 -4 -17 3
-31 13 -13 11 -33 20 -43 20 -11 0 -19 4 -19 10 0 5 -7 7 -15 4 -8 -4 -15 -1
-15 7 0 7 -3 9 -7 6 -3 -4 -12 -2 -20 5 -7 6 -16 8 -20 5 -3 -4 -11 0 -17 9
-6 8 -21 16 -34 17 -12 0 -22 5 -22 10 0 4 -5 5 -10 2 -6 -3 -13 0 -16 8 -3 8
-16 13 -30 11 -13 -1 -24 2 -24 8 0 6 -7 8 -14 5 -11 -4 -13 -1 -9 11 3 9 3
14 -2 10 -9 -8 -78 27 -109 55 -11 9 -26 17 -33 17 -7 0 -13 5 -13 10 0 6 -7
10 -15 10 -9 0 -21 5 -28 10 -7 6 -29 21 -49 35 -35 22 -38 23 -48 7 -9 -14
-10 -12 -4 8 6 22 5 23 -10 11 -14 -12 -16 -12 -10 4 5 13 4 16 -4 11 -7 -4
-12 -3 -12 2 0 6 -7 13 -16 16 -10 4 -13 2 -8 -6 4 -7 3 -8 -4 -4 -7 4 -12 14
-12 22 0 11 -6 13 -20 9 -13 -4 -22 -1 -26 9 -3 8 -26 23 -50 33 -24 10 -44
22 -44 27 0 5 -10 1 -22 -10 -15 -12 -18 -13 -10 -3 15 19 -3 39 -37 42 -12 1
-21 5 -21 10 0 5 -7 6 -16 3 -8 -3 -13 -2 -10 3 6 9 -22 26 -36 23 -5 -1 -8 3
-8 10 0 6 -3 9 -6 5 -3 -3 -17 5 -31 19 -13 13 -28 22 -33 19 -5 -3 -11 -1
-15 5 -10 16 -82 50 -90 42 -5 -4 -5 -1 -1 6 7 11 -37 38 -56 34 -5 -1 -8 2
-8 6 0 10 -50 37 -62 34 -5 -1 -8 2 -8 7 0 8 -35 22 -65 26 -5 1 -17 5 -25 8
-8 4 -28 8 -45 9 -16 2 -32 6 -35 10 -3 4 -11 -1 -18 -10z m1488 -736 c0 -2
-8 -10 -17 -17 -16 -13 -17 -12 -4 4 13 16 21 21 21 13z m-2570 -1856 c0 -5
-2 -10 -4 -10 -3 0 -8 5 -11 10 -3 6 -1 10 4 10 6 0 11 -4 11 -10z m-3783
-225 c0 -8 -4 -12 -9 -9 -5 3 -6 10 -3 15 9 13 12 11 12 -6z m-736 -502 c13
-16 12 -17 -3 -4 -10 7 -18 15 -18 17 0 8 8 3 21 -13z m-21 -228 c0 -2 -9 -3
-19 -2 -11 0 -18 5 -15 9 4 6 34 0 34 -7z m-46 -43 c3 -5 -1 -9 -9 -9 -8 0
-12 4 -9 9 3 4 7 8 9 8 2 0 6 -4 9 -8z m5699 -1407 c-3 -9 -8 -14 -10 -11 -3
3 -2 9 2 15 9 16 15 13 8 -4z m-543 -1560 c0 -2 -6 -8 -13 -14 -10 -8 -14 -7
-14 2 0 8 6 14 14 14 7 0 13 -1 13 -2z m110 -91 c0 -8 -19 -13 -24 -6 -3 5 1
9 9 9 8 0 15 -2 15 -3z"/>
<path d="M5416 5893 c-6 -14 -5 -15 5 -6 7 7 10 15 7 18 -3 3 -9 -2 -12 -12z"/>
<path d="M13476 4122 c-3 -5 1 -9 9 -9 8 0 12 4 9 9 -3 4 -7 8 -9 8 -2 0 -6
-4 -9 -8z"/>
</g>
</svg>
